<svg width="472" height="89" viewBox="0 0 472 89" fill="none" xmlns="http://www.w3.org/2000/svg">
<path d="M54.034 82.8699L0 59.9388V49.1543L54.034 26.2232V35.7589L8.32169 54.6033L54.034 73.3342V82.8699Z" fill="url(#paint0_linear_9_5115)" fill-opacity="0.5"/>
<path d="M92.6785 84.7997C88.5746 84.7997 84.9648 84.3835 81.8489 83.551C78.733 82.7185 76.1491 81.5077 74.0972 79.9184C72.0453 78.3291 70.4873 76.4371 69.4234 74.2423C68.3594 72.0476 67.8274 69.5502 67.8274 66.75C67.8274 66.3716 67.8274 66.031 67.8274 65.7283C67.8274 65.3499 67.8654 65.0472 67.9414 64.8201H77.8591C77.7831 65.1229 77.7451 65.3877 77.7451 65.6148C77.7451 65.8418 77.7451 66.0689 77.7451 66.2959C77.8211 68.9447 78.505 71.0259 79.797 72.5395C81.1649 74.0531 83.0269 75.1127 85.3828 75.7181C87.7387 76.3236 90.3606 76.6263 93.2485 76.6263C95.7564 76.6263 98.0743 76.3236 100.202 75.7181C102.33 75.037 104.002 74.0531 105.218 72.7666C106.51 71.4043 107.156 69.7015 107.156 67.6582C107.156 65.1607 106.32 63.2687 104.648 61.9821C103.052 60.6199 100.924 59.5604 98.2643 58.8036C95.6044 58.0468 92.8305 57.2521 89.9426 56.4196C87.5107 55.7385 85.0788 54.9817 82.6469 54.1492C80.215 53.3167 78.011 52.2951 76.0351 51.0842C74.1352 49.8733 72.5773 48.3218 71.3613 46.4298C70.2213 44.4622 69.6514 42.0025 69.6514 39.051C69.6514 36.4022 70.1833 34.0561 71.2473 32.0128C72.3873 29.9694 73.9832 28.2287 76.0351 26.7908C78.087 25.3529 80.5569 24.2934 83.4448 23.6122C86.4087 22.8554 89.6766 22.477 93.2485 22.477C97.0483 22.477 100.354 22.8933 103.166 23.7258C106.054 24.5582 108.448 25.7313 110.348 27.2449C112.248 28.7585 113.654 30.4991 114.566 32.4668C115.478 34.3588 115.934 36.4022 115.934 38.5969C115.934 39.051 115.934 39.5051 115.934 39.9592C115.934 40.3376 115.896 40.6403 115.82 40.8673H106.016V39.6186C106.016 38.105 105.598 36.6671 104.762 35.3048C104.002 33.8669 102.634 32.7317 100.658 31.8992C98.7583 30.9911 96.0984 30.537 92.6785 30.537C90.4746 30.537 88.5746 30.7262 86.9787 31.1046C85.3828 31.4073 84.0528 31.9371 82.9889 32.6939C81.9249 33.375 81.1269 34.2075 80.5949 35.1913C80.063 36.0995 79.797 37.159 79.797 38.3699C79.797 40.3376 80.4429 41.8512 81.7349 42.9107C83.0269 43.9702 84.7368 44.8406 86.8647 45.5217C89.0686 46.2028 91.4245 46.9596 93.9324 47.7921C96.5923 48.5489 99.2902 49.3435 102.026 50.176C104.838 50.9328 107.384 51.9167 109.664 53.1275C112.02 54.3384 113.882 56.0034 115.25 58.1224C116.694 60.1658 117.416 62.8903 117.416 66.2959C117.416 69.4745 116.808 72.2368 115.592 74.5829C114.376 76.929 112.628 78.8588 110.348 80.3724C108.144 81.886 105.522 82.9834 102.482 83.6645C99.5182 84.4213 96.2504 84.7997 92.6785 84.7997Z" fill="url(#paint1_linear_9_5115)" fill-opacity="0.5"/>
<path d="M154.437 84.7997C148.358 84.7997 143.228 83.7024 139.048 81.5077C134.944 79.2372 131.79 75.7938 129.586 71.1773C127.458 66.5608 126.394 60.6956 126.394 53.5816C126.394 46.392 127.458 40.5268 129.586 35.986C131.79 31.3695 134.944 27.9639 139.048 25.7691C143.228 23.4987 148.358 22.3635 154.437 22.3635C160.517 22.3635 165.609 23.4987 169.713 25.7691C173.893 27.9639 177.047 31.3695 179.174 35.986C181.302 40.5268 182.366 46.392 182.366 53.5816C182.366 60.6956 181.302 66.5608 179.174 71.1773C177.047 75.7938 173.893 79.2372 169.713 81.5077C165.609 83.7024 160.517 84.7997 154.437 84.7997ZM154.437 76.3992C158.313 76.3992 161.543 75.6424 164.127 74.1288C166.711 72.6152 168.649 70.2691 169.941 67.0906C171.309 63.8363 171.993 59.7496 171.993 54.8304V52.3329C171.993 47.338 171.309 43.2513 169.941 40.0727C168.649 36.8941 166.711 34.548 164.127 33.0344C161.543 31.5208 158.313 30.764 154.437 30.764C150.562 30.764 147.294 31.5208 144.634 33.0344C142.05 34.548 140.112 36.8941 138.82 40.0727C137.528 43.2513 136.882 47.338 136.882 52.3329V54.8304C136.882 59.7496 137.528 63.8363 138.82 67.0906C140.112 70.2691 142.05 72.6152 144.634 74.1288C147.294 75.6424 150.562 76.3992 154.437 76.3992Z" fill="url(#paint2_linear_9_5115)" fill-opacity="0.5"/>
<path d="M223.326 84.7997C219.299 84.7997 215.689 84.0051 212.497 82.4158C209.305 80.7508 206.683 78.2534 204.631 74.9235H203.833L202.807 83.4375H194.828V1.36224H204.859V31.2181H205.543C206.911 29.0991 208.507 27.3963 210.331 26.1097C212.155 24.8231 214.207 23.8771 216.487 23.2717C218.767 22.6662 221.199 22.3635 223.782 22.3635C228.418 22.3635 232.484 23.4609 235.98 25.6556C239.476 27.8503 242.174 31.2181 244.074 35.7589C246.05 40.2997 247.038 46.0893 247.038 53.1275C247.038 60.5442 246.088 66.5986 244.188 71.2908C242.288 75.9073 239.59 79.3129 236.094 81.5077C232.598 83.7024 228.342 84.7997 223.326 84.7997ZM220.933 76.0587C224.352 76.0587 227.202 75.3775 229.482 74.0153C231.838 72.6531 233.624 70.4205 234.84 67.3176C236.056 64.139 236.664 59.9766 236.664 54.8304V52.4464C236.664 47.4515 236.094 43.4026 234.954 40.2997C233.814 37.1212 232.066 34.8129 229.71 33.375C227.354 31.8614 224.314 31.1046 220.591 31.1046C218.463 31.1046 216.449 31.4452 214.549 32.1263C212.649 32.8074 210.939 33.9804 209.419 35.6454C207.975 37.3104 206.835 39.5429 205.999 42.3431C205.239 45.1433 204.859 48.5867 204.859 52.6735V54.4898C204.859 59.182 205.391 63.1173 206.455 66.2959C207.595 69.4745 209.343 71.8963 211.699 73.5612C214.131 75.2262 217.209 76.0587 220.933 76.0587Z" fill="url(#paint3_linear_9_5115)" fill-opacity="0.5"/>
<path d="M259.507 83.4375V23.7258H267.6L268.512 33.602H269.31C269.918 31.71 270.754 29.9315 271.818 28.2666C272.882 26.5259 274.326 25.1259 276.15 24.0663C277.974 22.9311 280.216 22.3635 282.876 22.3635C284.016 22.3635 285.042 22.477 285.954 22.7041C286.942 22.8554 287.664 23.0446 288.12 23.2717V32.4668H284.358C281.774 32.4668 279.532 32.9209 277.632 33.8291C275.808 34.6616 274.288 35.8724 273.072 37.4617C271.856 39.051 270.944 40.943 270.336 43.1378C269.804 45.3325 269.538 47.6786 269.538 50.176V83.4375H259.507Z" fill="url(#paint4_linear_9_5115)" fill-opacity="0.5"/>
<path d="M320.183 84.7997C314.255 84.7997 309.239 83.7024 305.135 81.5077C301.107 79.2372 298.03 75.7938 295.902 71.1773C293.85 66.5608 292.824 60.6956 292.824 53.5816C292.824 46.392 293.85 40.5268 295.902 35.986C298.03 31.3695 301.145 27.9639 305.249 25.7691C309.353 23.4987 314.483 22.3635 320.639 22.3635C326.262 22.3635 330.974 23.4609 334.774 25.6556C338.574 27.7747 341.424 30.9911 343.324 35.3048C345.3 39.5429 346.288 44.8784 346.288 51.3112V56.0791H303.197C303.349 60.8469 304.033 64.7823 305.249 67.8852C306.541 70.9124 308.441 73.145 310.949 74.5829C313.457 75.9451 316.611 76.6263 320.411 76.6263C322.995 76.6263 325.236 76.3236 327.136 75.7181C329.112 75.037 330.746 74.091 332.038 72.8801C333.406 71.6692 334.432 70.2313 335.116 68.5663C335.8 66.9014 336.18 65.085 336.256 63.1173H346.06C345.984 66.2959 345.376 69.2474 344.236 71.9719C343.096 74.6207 341.424 76.8912 339.22 78.7832C337.016 80.6752 334.318 82.1509 331.126 83.2105C327.934 84.27 324.287 84.7997 320.183 84.7997ZM303.425 48.5867H335.914C335.914 45.2568 335.534 42.4566 334.774 40.1862C334.014 37.9158 332.912 36.0616 331.468 34.6237C330.1 33.1858 328.466 32.1641 326.566 31.5587C324.743 30.8776 322.653 30.537 320.297 30.537C316.801 30.537 313.837 31.1803 311.405 32.4668C308.973 33.7534 307.111 35.7211 305.819 38.3699C304.527 41.0187 303.729 44.4243 303.425 48.5867Z" fill="url(#paint5_linear_9_5115)" fill-opacity="0.5"/>
<path d="M374.654 89L400.075 0H408.169L382.748 89H374.654Z" fill="url(#paint6_linear_9_5115)" fill-opacity="0.5"/>
<path d="M417.966 82.8699V73.3342L463.678 54.6033L417.966 35.7589V26.2232L472 49.1543V59.9388L417.966 82.8699Z" fill="url(#paint7_linear_9_5115)" fill-opacity="0.5"/>
<defs>
<linearGradient id="paint0_linear_9_5115" x1="236.612" y1="16.9217" x2="236.612" y2="76.7859" gradientUnits="userSpaceOnUse">
<stop stop-color="#CF6DFF"/>
<stop offset="1" stop-color="#111111"/>
</linearGradient>
<linearGradient id="paint1_linear_9_5115" x1="236.612" y1="16.9217" x2="236.612" y2="76.7859" gradientUnits="userSpaceOnUse">
<stop stop-color="#CF6DFF"/>
<stop offset="1" stop-color="#111111"/>
</linearGradient>
<linearGradient id="paint2_linear_9_5115" x1="236.612" y1="16.9217" x2="236.612" y2="76.7859" gradientUnits="userSpaceOnUse">
<stop stop-color="#CF6DFF"/>
<stop offset="1" stop-color="#111111"/>
</linearGradient>
<linearGradient id="paint3_linear_9_5115" x1="236.612" y1="16.9217" x2="236.612" y2="76.7859" gradientUnits="userSpaceOnUse">
<stop stop-color="#CF6DFF"/>
<stop offset="1" stop-color="#111111"/>
</linearGradient>
<linearGradient id="paint4_linear_9_5115" x1="236.612" y1="16.9217" x2="236.612" y2="76.7859" gradientUnits="userSpaceOnUse">
<stop stop-color="#CF6DFF"/>
<stop offset="1" stop-color="#111111"/>
</linearGradient>
<linearGradient id="paint5_linear_9_5115" x1="236.612" y1="16.9217" x2="236.612" y2="76.7859" gradientUnits="userSpaceOnUse">
<stop stop-color="#CF6DFF"/>
<stop offset="1" stop-color="#111111"/>
</linearGradient>
<linearGradient id="paint6_linear_9_5115" x1="236.612" y1="16.9217" x2="236.612" y2="76.7859" gradientUnits="userSpaceOnUse">
<stop stop-color="#CF6DFF"/>
<stop offset="1" stop-color="#111111"/>
</linearGradient>
<linearGradient id="paint7_linear_9_5115" x1="236.612" y1="16.9217" x2="236.612" y2="76.7859" gradientUnits="userSpaceOnUse">
<stop stop-color="#CF6DFF"/>
<stop offset="1" stop-color="#111111"/>
</linearGradient>
</defs>
</svg>
