<svg width="803" height="271" viewBox="0 0 803 271" fill="none" xmlns="http://www.w3.org/2000/svg">
<path d="M106.669 211.809L0 166.204V144.756L106.669 99.1518V118.116L16.428 155.593L106.669 192.844V211.809Z" fill="url(#paint0_linear_19_5473)" fill-opacity="0.5"/>
<path d="M141.551 212.937V49.7092H161.354V109.085H162.93C165.93 105.022 169.306 101.71 173.056 99.1518C176.807 96.5931 180.933 94.7117 185.434 93.5076C190.084 92.153 195.11 91.4758 200.511 91.4758C208.013 91.4758 214.539 92.7551 220.09 95.3138C225.791 97.8724 230.217 102.011 233.367 107.731C236.668 113.45 238.318 121.202 238.318 130.985V212.937H218.515V133.694C218.515 128.727 217.839 124.663 216.489 121.503C215.289 118.342 213.564 115.858 211.313 114.052C209.213 112.246 206.587 110.967 203.437 110.214C200.436 109.462 197.061 109.085 193.31 109.085C187.759 109.085 182.508 110.44 177.557 113.149C172.606 115.708 168.631 119.546 165.63 124.663C162.779 129.63 161.354 135.801 161.354 143.176V212.937H141.551Z" fill="url(#paint1_linear_19_5473)" fill-opacity="0.5"/>
<path d="M296.036 215.647C289.885 215.647 285.084 214.518 281.633 212.26C278.183 209.852 275.707 206.767 274.207 203.004C272.707 199.091 271.957 194.952 271.957 190.587V110.892H256.654V94.1849H272.407L276.007 60.9974H291.76V94.1849H314.039V110.892H291.76V187.652C291.76 191.415 292.435 194.274 293.785 196.231C295.136 198.037 297.686 198.94 301.437 198.94H314.039V212.034C312.539 212.787 310.739 213.389 308.638 213.841C306.538 214.292 304.362 214.668 302.112 214.969C300.012 215.421 297.986 215.647 296.036 215.647Z" fill="url(#paint2_linear_19_5473)" fill-opacity="0.5"/>
<path d="M335.165 212.937V94.1849H351.143L352.943 112.02H354.518C357.519 107.204 360.895 103.291 364.645 100.281C368.396 97.2704 372.522 95.088 377.022 93.7334C381.523 92.2283 386.399 91.4758 391.65 91.4758C399.301 91.4758 405.903 93.0561 411.454 96.2168C417.005 99.227 421.13 104.495 423.831 112.02H425.181C428.032 107.204 431.332 103.366 435.083 100.506C438.834 97.4962 443.034 95.2385 447.685 93.7334C452.336 92.2283 457.287 91.4758 462.538 91.4758C469.739 91.4758 476.04 92.7551 481.441 95.3138C486.842 97.7219 491.043 101.786 494.044 107.505C497.194 113.074 498.77 120.599 498.77 130.082V212.937H478.966V133.242C478.966 128.426 478.366 124.437 477.166 121.277C476.115 118.116 474.54 115.708 472.44 114.052C470.339 112.246 467.864 110.967 465.013 110.214C462.313 109.462 459.387 109.085 456.237 109.085C450.986 109.085 446.11 110.44 441.609 113.149C437.258 115.858 433.733 119.772 431.032 124.889C428.332 130.006 426.981 136.102 426.981 143.176V212.937H407.178V133.242C407.178 128.426 406.578 124.437 405.378 121.277C404.177 118.116 402.602 115.708 400.652 114.052C398.701 112.246 396.301 110.967 393.45 110.214C390.75 109.462 387.899 109.085 384.899 109.085C379.498 109.085 374.472 110.44 369.821 113.149C365.32 115.858 361.72 119.772 359.019 124.889C356.319 130.006 354.968 136.102 354.968 143.176V212.937H335.165Z" fill="url(#paint3_linear_19_5473)" fill-opacity="0.5"/>
<path d="M528.779 212.937V49.7092H548.583V212.937H528.779Z" fill="url(#paint4_linear_19_5473)" fill-opacity="0.5"/>
<path d="M610.828 224L661.012 47H676.989L626.805 224H610.828Z" fill="url(#paint5_linear_19_5473)" fill-opacity="0.5"/>
<path d="M696.331 211.809V192.844L786.572 155.593L696.331 118.116V99.1518L803 144.756V166.204L696.331 211.809Z" fill="url(#paint6_linear_19_5473)" fill-opacity="0.5"/>
<path d="M573.337 47C572.151 47 571.018 46.8949 569.937 46.6846C568.856 46.5093 567.897 46.1588 567.061 45.6331C566.259 45.1424 565.614 44.4415 565.126 43.5302C564.672 42.654 564.446 41.5149 564.446 40.113V28.8624C564.446 28.0914 564.219 27.478 563.766 27.0224C563.312 26.5667 562.737 26.2513 562.04 26.0761C561.377 25.8658 560.697 25.7606 560 25.7606V21.2919C560.697 21.2919 561.377 21.2043 562.04 21.0291C562.737 20.8188 563.312 20.4858 563.766 20.0302C564.219 19.5746 564.446 18.9787 564.446 18.2427V6.88702C564.446 5.48508 564.672 4.34601 565.126 3.4698C565.614 2.55854 566.259 1.85757 567.061 1.36689C567.897 0.841162 568.856 0.490677 569.937 0.315435C571.018 0.105145 572.151 0 573.337 0V2.94407C572.744 2.94407 572.082 3.03169 571.349 3.20693C570.652 3.38218 570.042 3.69761 569.519 4.15324C569.031 4.60887 568.769 5.29232 568.734 6.20358L568.264 17.717C568.194 19.4694 567.793 20.8363 567.061 21.8177C566.328 22.799 564.969 23.2897 562.981 23.2897V23.7629C564.306 23.7629 565.335 23.9907 566.067 24.4463C566.834 24.9019 567.374 25.5503 567.688 26.3915C568.037 27.1976 568.229 28.179 568.264 29.3356L568.734 40.7964C568.769 41.6726 569.031 42.3386 569.519 42.7942C570.042 43.2849 570.652 43.6178 571.349 43.7931C572.047 43.9683 572.709 44.0559 573.337 44.0559V47Z" fill="url(#paint7_linear_19_5473)" fill-opacity="0.5"/>
<path d="M591.775 47C590.59 47 589.456 46.8949 588.375 46.6846C587.295 46.5093 586.336 46.1588 585.499 45.6331C584.697 45.1424 584.052 44.4415 583.564 43.5302C583.11 42.654 582.884 41.5149 582.884 40.113V28.8624C582.884 28.0914 582.657 27.478 582.204 27.0224C581.751 26.5667 581.175 26.2513 580.478 26.0761C579.815 25.8658 579.136 25.7606 578.438 25.7606V21.2919C579.136 21.2919 579.815 21.2043 580.478 21.0291C581.175 20.8188 581.751 20.4858 582.204 20.0302C582.657 19.5746 582.884 18.9787 582.884 18.2427V6.88702C582.884 5.48508 583.11 4.34601 583.564 3.4698C584.052 2.55854 584.697 1.85757 585.499 1.36689C586.336 0.841162 587.295 0.490677 588.375 0.315435C589.456 0.105145 590.59 0 591.775 0V2.94407C591.182 2.94407 590.52 3.03169 589.788 3.20693C589.09 3.38218 588.48 3.69761 587.957 4.15324C587.469 4.60887 587.207 5.29232 587.173 6.20358L586.702 17.717C586.632 19.4694 586.231 20.8363 585.499 21.8177C584.767 22.799 583.407 23.2897 581.419 23.2897V23.7629C582.744 23.7629 583.773 23.9907 584.505 24.4463C585.272 24.9019 585.813 25.5503 586.126 26.3915C586.475 27.1976 586.667 28.179 586.702 29.3356L587.173 40.7964C587.207 41.6726 587.469 42.3386 587.957 42.7942C588.48 43.2849 589.09 43.6178 589.788 43.7931C590.485 43.9683 591.147 44.0559 591.775 44.0559V47Z" fill="url(#paint8_linear_19_5473)" fill-opacity="0.5"/>
<path d="M608.173 0C609.393 0 610.526 0.105145 611.572 0.315435C612.653 0.490677 613.612 0.841162 614.449 1.36689C615.286 1.85757 615.931 2.55854 616.384 3.4698C616.872 4.34601 617.116 5.48508 617.116 6.88702V18.1376C617.116 18.8736 617.343 19.4869 617.796 19.9776C618.249 20.4333 618.807 20.7662 619.47 20.9765C620.167 21.1518 620.864 21.2394 621.562 21.2394V25.7081C620.864 25.7081 620.167 25.8132 619.47 26.0235C618.807 26.1987 618.249 26.5142 617.796 26.9698C617.343 27.4254 617.116 28.0213 617.116 28.7573V40.113C617.116 41.5149 616.872 42.654 616.384 43.5302C615.931 44.4415 615.286 45.1424 614.449 45.6331C613.612 46.1588 612.653 46.5093 611.572 46.6846C610.526 46.8949 609.393 47 608.173 47V44.0559C608.8 44.0559 609.463 43.9683 610.16 43.7931C610.857 43.6178 611.468 43.2849 611.991 42.7942C612.514 42.3386 612.793 41.6726 612.827 40.7964L613.298 29.283C613.368 27.5306 613.769 26.1637 614.501 25.1823C615.233 24.201 616.593 23.7103 618.581 23.7103V23.2371C617.256 23.2371 616.21 23.0093 615.443 22.5537C614.71 22.0981 614.17 21.4672 613.821 20.6611C613.507 19.8199 613.333 18.821 613.298 17.6644L612.827 6.20358C612.793 5.29232 612.514 4.60887 611.991 4.15324C611.503 3.69761 610.91 3.38218 610.212 3.20693C609.515 3.03169 608.835 2.94407 608.173 2.94407V0Z" fill="url(#paint9_linear_19_5473)" fill-opacity="0.5"/>
<path d="M626.611 0C627.831 0 628.964 0.105145 630.01 0.315435C631.091 0.490677 632.05 0.841162 632.887 1.36689C633.724 1.85757 634.369 2.55854 634.822 3.4698C635.31 4.34601 635.554 5.48508 635.554 6.88702V18.1376C635.554 18.8736 635.781 19.4869 636.234 19.9776C636.688 20.4333 637.245 20.7662 637.908 20.9765C638.605 21.1518 639.303 21.2394 640 21.2394V25.7081C639.303 25.7081 638.605 25.8132 637.908 26.0235C637.245 26.1987 636.688 26.5142 636.234 26.9698C635.781 27.4254 635.554 28.0213 635.554 28.7573V40.113C635.554 41.5149 635.31 42.654 634.822 43.5302C634.369 44.4415 633.724 45.1424 632.887 45.6331C632.05 46.1588 631.091 46.5093 630.01 46.6846C628.964 46.8949 627.831 47 626.611 47V44.0559C627.239 44.0559 627.901 43.9683 628.598 43.7931C629.296 43.6178 629.906 43.2849 630.429 42.7942C630.952 42.3386 631.231 41.6726 631.266 40.7964L631.736 29.283C631.806 27.5306 632.207 26.1637 632.939 25.1823C633.672 24.201 635.031 23.7103 637.019 23.7103V23.2371C635.694 23.2371 634.648 23.0093 633.881 22.5537C633.149 22.0981 632.608 21.4672 632.259 20.6611C631.946 19.8199 631.771 18.821 631.736 17.6644L631.266 6.20358C631.231 5.29232 630.952 4.60887 630.429 4.15324C629.941 3.69761 629.348 3.38218 628.651 3.20693C627.953 3.03169 627.273 2.94407 626.611 2.94407V0Z" fill="url(#paint10_linear_19_5473)" fill-opacity="0.5"/>
<path d="M88.6734 82.9463C85.5588 79.6175 83.1588 75.8949 81.4733 71.7785C79.8244 67.6264 79 63.349 79 58.9463C79 54.5794 79.8244 50.3199 81.4733 46.1678C83.1588 42.0157 85.5588 38.2931 88.6734 35H91.8062C90.3406 37.1834 88.9848 39.5817 87.739 42.1946C86.5298 44.8076 85.5588 47.5459 84.826 50.4094C84.1298 53.2371 83.7817 56.0828 83.7817 58.9463C83.7817 61.8098 84.1298 64.6734 84.826 67.5369C85.5588 70.4005 86.5298 73.1387 87.739 75.7517C88.9848 78.3647 90.3406 80.7629 91.8062 82.9463H88.6734Z" fill="url(#paint11_linear_19_5473)" fill-opacity="0.5"/>
<path d="M100.461 35.0537C103.612 38.3826 106.012 42.123 107.661 46.2752C109.31 50.3915 110.134 54.651 110.134 59.0537C110.134 63.4206 109.31 67.6801 107.661 71.8322C106.012 75.9843 103.612 79.7069 100.461 83H97.3282C98.8305 80.8166 100.186 78.4183 101.395 75.8054C102.605 73.1924 103.557 70.472 104.253 67.6443C104.986 64.7808 105.353 61.9172 105.353 59.0537C105.353 56.1544 104.986 53.2908 104.253 50.4631C103.557 47.5996 102.605 44.8613 101.395 42.2483C100.186 39.6353 98.8305 37.2371 97.3282 35.0537H100.461Z" fill="url(#paint12_linear_19_5473)" fill-opacity="0.5"/>
<path d="M119.064 82.4094V80.2081C119.76 80.0649 120.328 79.7248 120.768 79.1879C121.244 78.651 121.592 77.9709 121.812 77.1477C122.032 76.3602 122.142 75.4832 122.142 74.5168H119.614V68.8792H125V73.9262C125 76.0022 124.689 77.613 124.066 78.7584C123.443 79.9396 122.673 80.7987 121.757 81.3356C120.878 81.8725 119.98 82.2304 119.064 82.4094ZM119.614 51.9128V46.2752H125V51.9128H119.614Z" fill="url(#paint13_linear_19_5473)" fill-opacity="0.5"/>
<path d="M187 250.671V245.798H216.856V250.671H187ZM187 264.202V259.329H216.856V264.202H187Z" fill="url(#paint14_linear_19_5473)" fill-opacity="0.5"/>
<path d="M227.081 271V265.613L252.392 255.032L227.081 244.387V239L257 251.954V258.046L227.081 271Z" fill="url(#paint15_linear_19_5473)" fill-opacity="0.5"/>
<path d="M574 242.48V239.263H576.835V242.48H574ZM574 263V245.731H576.835V263H574Z" fill="url(#paint16_linear_19_5473)" fill-opacity="0.5"/>
<path d="M581.912 263V248.16H579.399V245.731H581.912V242.973C581.912 242.294 582.008 241.659 582.202 241.068C582.395 240.456 582.76 239.963 583.297 239.591C583.834 239.197 584.585 239 585.552 239C585.852 239 586.142 239.022 586.422 239.066C586.722 239.088 587.001 239.131 587.259 239.197C587.538 239.241 587.785 239.295 588 239.361V241.43H586.293C585.756 241.43 585.359 241.572 585.101 241.856C584.865 242.119 584.747 242.502 584.747 243.005V245.731H588V248.16H584.747V263H581.912Z" fill="url(#paint17_linear_19_5473)" fill-opacity="0.5"/>
<path d="M185.949 32C184.226 32 182.769 31.6844 181.577 31.0531C180.407 30.4 179.512 29.4095 178.894 28.0816C178.298 26.7537 178 25.0667 178 23.0204C178 20.9524 178.298 19.2653 178.894 17.9592C179.512 16.6313 180.418 15.6517 181.61 15.0204C182.802 14.3673 184.293 14.0408 186.081 14.0408C187.715 14.0408 189.084 14.3565 190.188 14.9878C191.292 15.5973 192.12 16.5224 192.672 17.7633C193.246 18.9823 193.533 20.517 193.533 22.3673V23.7388H181.014C181.058 25.1102 181.257 26.2422 181.61 27.1347C181.985 28.0054 182.537 28.6476 183.266 29.0612C183.995 29.4531 184.911 29.649 186.015 29.649C186.766 29.649 187.417 29.5619 187.969 29.3878C188.543 29.1918 189.018 28.9197 189.393 28.5714C189.791 28.2231 190.089 27.8095 190.287 27.3306C190.486 26.8517 190.597 26.3293 190.619 25.7633H193.467C193.445 26.6775 193.268 27.5265 192.937 28.3102C192.606 29.0721 192.12 29.7252 191.48 30.2694C190.839 30.8136 190.056 31.2381 189.128 31.5429C188.201 31.8476 187.141 32 185.949 32ZM181.08 21.5837H190.519C190.519 20.6258 190.409 19.8204 190.188 19.1673C189.967 18.5143 189.647 17.981 189.228 17.5673C188.83 17.1537 188.355 16.8599 187.803 16.6857C187.274 16.4898 186.666 16.3918 185.982 16.3918C184.966 16.3918 184.105 16.5769 183.399 16.9469C182.692 17.317 182.151 17.883 181.776 18.6449C181.4 19.4068 181.168 20.3864 181.08 21.5837Z" fill="url(#paint18_linear_19_5473)" fill-opacity="0.5"/>
<path d="M197.138 31.6082V8H200.053V31.6082H197.138Z" fill="url(#paint19_linear_19_5473)" fill-opacity="0.5"/>
<path d="M210.671 32C209.479 32 208.43 31.8803 207.525 31.6408C206.62 31.4014 205.869 31.0531 205.273 30.5959C204.677 30.1388 204.224 29.5946 203.915 28.9633C203.606 28.332 203.451 27.6136 203.451 26.8082C203.451 26.6993 203.451 26.6014 203.451 26.5143C203.451 26.4054 203.462 26.3184 203.484 26.2531H206.366C206.344 26.3401 206.333 26.4163 206.333 26.4816C206.333 26.5469 206.333 26.6122 206.333 26.6775C206.355 27.4395 206.553 28.0381 206.929 28.4735C207.326 28.9088 207.867 29.2136 208.552 29.3878C209.236 29.5619 209.998 29.649 210.837 29.649C211.565 29.649 212.239 29.5619 212.857 29.3878C213.475 29.1918 213.961 28.9088 214.314 28.5388C214.69 28.1469 214.877 27.6571 214.877 27.0694C214.877 26.351 214.635 25.8068 214.149 25.4367C213.685 25.0449 213.067 24.7401 212.294 24.5224C211.521 24.3048 210.715 24.0762 209.876 23.8367C209.17 23.6408 208.463 23.4231 207.757 23.1837C207.05 22.9442 206.41 22.6503 205.836 22.302C205.284 21.9537 204.831 21.5075 204.478 20.9633C204.147 20.3973 203.981 19.6898 203.981 18.8408C203.981 18.0789 204.136 17.4041 204.445 16.8163C204.776 16.2286 205.24 15.7279 205.836 15.3143C206.432 14.9007 207.15 14.5959 207.989 14.4C208.85 14.1823 209.799 14.0735 210.837 14.0735C211.941 14.0735 212.901 14.1932 213.718 14.4327C214.557 14.6721 215.253 15.0095 215.805 15.4449C216.357 15.8803 216.765 16.381 217.03 16.9469C217.295 17.4912 217.428 18.0789 217.428 18.7102C217.428 18.8408 217.428 18.9714 217.428 19.102C217.428 19.2109 217.417 19.298 217.395 19.3633H214.546V19.0041C214.546 18.5687 214.425 18.1551 214.182 17.7633C213.961 17.3497 213.564 17.0231 212.99 16.7837C212.438 16.5224 211.665 16.3918 210.671 16.3918C210.031 16.3918 209.479 16.4463 209.015 16.5551C208.552 16.6422 208.165 16.7946 207.856 17.0122C207.547 17.2082 207.315 17.4476 207.161 17.7306C207.006 17.9918 206.929 18.2966 206.929 18.6449C206.929 19.2109 207.116 19.6463 207.492 19.951C207.867 20.2558 208.364 20.5061 208.982 20.702C209.622 20.898 210.307 21.1156 211.036 21.3551C211.808 21.5728 212.592 21.8014 213.387 22.0408C214.204 22.2585 214.944 22.5415 215.606 22.8898C216.291 23.2381 216.831 23.717 217.229 24.3265C217.648 24.9143 217.858 25.698 217.858 26.6775C217.858 27.5918 217.682 28.3864 217.328 29.0612C216.975 29.7361 216.467 30.2912 215.805 30.7265C215.164 31.1619 214.403 31.4775 213.52 31.6735C212.658 31.8912 211.709 32 210.671 32Z" fill="url(#paint20_linear_19_5473)" fill-opacity="0.5"/>
<path d="M228.416 32C226.693 32 225.236 31.6844 224.044 31.0531C222.874 30.4 221.979 29.4095 221.361 28.0816C220.765 26.7537 220.467 25.0667 220.467 23.0204C220.467 20.9524 220.765 19.2653 221.361 17.9592C221.979 16.6313 222.885 15.6517 224.077 15.0204C225.269 14.3673 226.76 14.0408 228.548 14.0408C230.182 14.0408 231.551 14.3565 232.655 14.9878C233.759 15.5973 234.587 16.5224 235.139 17.7633C235.713 18.9823 236 20.517 236 22.3673V23.7388H223.481C223.525 25.1102 223.724 26.2422 224.077 27.1347C224.452 28.0054 225.004 28.6476 225.733 29.0612C226.462 29.4531 227.378 29.649 228.482 29.649C229.233 29.649 229.884 29.5619 230.436 29.3878C231.01 29.1918 231.485 28.9197 231.86 28.5714C232.257 28.2231 232.556 27.8095 232.754 27.3306C232.953 26.8517 233.063 26.3293 233.085 25.7633H235.934C235.912 26.6775 235.735 27.5265 235.404 28.3102C235.073 29.0721 234.587 29.7252 233.947 30.2694C233.306 30.8136 232.522 31.2381 231.595 31.5429C230.668 31.8476 229.608 32 228.416 32ZM223.547 21.5837H232.986C232.986 20.6258 232.876 19.8204 232.655 19.1673C232.434 18.5143 232.114 17.981 231.694 17.5673C231.297 17.1537 230.822 16.8599 230.27 16.6857C229.74 16.4898 229.133 16.3918 228.449 16.3918C227.433 16.3918 226.572 16.5769 225.865 16.9469C225.159 17.317 224.618 17.883 224.243 18.6449C223.867 19.4068 223.635 20.3864 223.547 21.5837Z" fill="url(#paint21_linear_19_5473)" fill-opacity="0.5"/>
<path d="M364.419 262.739L361 251.288H362.957L364.677 257.58C364.763 257.884 364.842 258.218 364.913 258.581C364.999 258.929 365.078 259.256 365.15 259.561C365.236 259.851 365.293 260.076 365.322 260.235H365.451C365.508 259.96 365.573 259.648 365.644 259.299C365.73 258.951 365.802 258.617 365.859 258.298C365.931 257.979 365.988 257.732 366.031 257.558L367.58 251.288H369.622L371.192 257.558C371.249 257.805 371.314 258.095 371.385 258.429C371.457 258.748 371.529 259.067 371.6 259.386C371.686 259.706 371.744 259.989 371.772 260.235H371.902C371.959 260.003 372.023 259.735 372.095 259.43C372.167 259.111 372.246 258.791 372.332 258.472C372.418 258.138 372.496 257.848 372.568 257.601L374.267 251.288H376.073L372.676 262.739H370.74L369.278 256.818C369.221 256.542 369.149 256.223 369.063 255.86C368.977 255.483 368.891 255.105 368.805 254.728C368.734 254.336 368.669 253.995 368.612 253.705H368.483C368.454 253.922 368.404 254.198 368.332 254.532C368.275 254.866 368.203 255.236 368.117 255.642C368.031 256.034 367.931 256.426 367.816 256.818L366.354 262.739H364.419Z" fill="url(#paint22_linear_19_5473)" fill-opacity="0.5"/>
<path d="M377.786 262.739V247H379.678V252.725H379.828C380.115 252.333 380.438 252.014 380.796 251.767C381.154 251.521 381.549 251.339 381.979 251.223C382.423 251.093 382.903 251.027 383.419 251.027C384.136 251.027 384.759 251.151 385.29 251.397C385.835 251.644 386.257 252.043 386.558 252.595C386.874 253.146 387.032 253.893 387.032 254.837V262.739H385.139V255.098C385.139 254.619 385.075 254.227 384.946 253.922C384.831 253.618 384.666 253.378 384.451 253.204C384.251 253.03 384 252.907 383.699 252.834C383.412 252.761 383.089 252.725 382.731 252.725C382.201 252.725 381.699 252.856 381.226 253.117C380.753 253.364 380.373 253.734 380.086 254.227C379.814 254.706 379.678 255.301 379.678 256.012V262.739H377.786Z" fill="url(#paint23_linear_19_5473)" fill-opacity="0.5"/>
<path d="M389.902 249.133V247H391.794V249.133H389.902ZM389.902 262.739V251.288H391.794V262.739H389.902Z" fill="url(#paint24_linear_19_5473)" fill-opacity="0.5"/>
<path d="M394.731 262.739V247H396.623V262.739H394.731Z" fill="url(#paint25_linear_19_5473)" fill-opacity="0.5"/>
<path d="M404.076 263C402.958 263 402.012 262.79 401.238 262.369C400.478 261.933 399.897 261.273 399.496 260.388C399.109 259.502 398.916 258.378 398.916 257.014C398.916 255.635 399.109 254.51 399.496 253.639C399.897 252.754 400.485 252.101 401.259 251.68C402.033 251.245 403.001 251.027 404.162 251.027C405.223 251.027 406.112 251.238 406.828 251.659C407.545 252.065 408.083 252.682 408.441 253.509C408.814 254.322 409 255.345 409 256.578V257.493H400.872C400.901 258.407 401.03 259.161 401.259 259.756C401.503 260.337 401.861 260.765 402.334 261.041C402.807 261.302 403.402 261.433 404.119 261.433C404.606 261.433 405.029 261.375 405.388 261.259C405.76 261.128 406.069 260.946 406.312 260.714C406.57 260.482 406.764 260.206 406.893 259.887C407.022 259.568 407.093 259.22 407.108 258.842H408.957C408.943 259.452 408.828 260.018 408.613 260.54C408.398 261.048 408.083 261.483 407.667 261.846C407.251 262.209 406.742 262.492 406.14 262.695C405.538 262.898 404.85 263 404.076 263ZM400.915 256.056H407.043C407.043 255.417 406.972 254.88 406.828 254.445C406.685 254.01 406.477 253.654 406.205 253.378C405.947 253.102 405.639 252.907 405.28 252.79C404.936 252.66 404.542 252.595 404.098 252.595C403.438 252.595 402.879 252.718 402.42 252.965C401.962 253.211 401.61 253.589 401.367 254.097C401.123 254.605 400.973 255.258 400.915 256.056Z" fill="url(#paint26_linear_19_5473)" fill-opacity="0.5"/>
<defs>
<linearGradient id="paint0_linear_19_5473" x1="401.5" y1="75.0849" x2="402.993" y2="215.531" gradientUnits="userSpaceOnUse">
<stop stop-color="#CF6DFF"/>
<stop offset="1" stop-color="#0E0E0E"/>
</linearGradient>
<linearGradient id="paint1_linear_19_5473" x1="401.5" y1="75.0849" x2="402.993" y2="215.531" gradientUnits="userSpaceOnUse">
<stop stop-color="#CF6DFF"/>
<stop offset="1" stop-color="#0E0E0E"/>
</linearGradient>
<linearGradient id="paint2_linear_19_5473" x1="401.5" y1="75.0849" x2="402.993" y2="215.531" gradientUnits="userSpaceOnUse">
<stop stop-color="#CF6DFF"/>
<stop offset="1" stop-color="#0E0E0E"/>
</linearGradient>
<linearGradient id="paint3_linear_19_5473" x1="401.5" y1="75.0849" x2="402.993" y2="215.531" gradientUnits="userSpaceOnUse">
<stop stop-color="#CF6DFF"/>
<stop offset="1" stop-color="#0E0E0E"/>
</linearGradient>
<linearGradient id="paint4_linear_19_5473" x1="401.5" y1="75.0849" x2="402.993" y2="215.531" gradientUnits="userSpaceOnUse">
<stop stop-color="#CF6DFF"/>
<stop offset="1" stop-color="#0E0E0E"/>
</linearGradient>
<linearGradient id="paint5_linear_19_5473" x1="401.5" y1="75.0849" x2="402.993" y2="215.531" gradientUnits="userSpaceOnUse">
<stop stop-color="#CF6DFF"/>
<stop offset="1" stop-color="#0E0E0E"/>
</linearGradient>
<linearGradient id="paint6_linear_19_5473" x1="401.5" y1="75.0849" x2="402.993" y2="215.531" gradientUnits="userSpaceOnUse">
<stop stop-color="#CF6DFF"/>
<stop offset="1" stop-color="#0E0E0E"/>
</linearGradient>
<linearGradient id="paint7_linear_19_5473" x1="600" y1="7.45756" x2="601.056" y2="44.7253" gradientUnits="userSpaceOnUse">
<stop stop-color="#CF6DFF"/>
<stop offset="1" stop-color="#0E0E0E"/>
</linearGradient>
<linearGradient id="paint8_linear_19_5473" x1="600" y1="7.45756" x2="601.056" y2="44.7253" gradientUnits="userSpaceOnUse">
<stop stop-color="#CF6DFF"/>
<stop offset="1" stop-color="#0E0E0E"/>
</linearGradient>
<linearGradient id="paint9_linear_19_5473" x1="600" y1="7.45756" x2="601.056" y2="44.7253" gradientUnits="userSpaceOnUse">
<stop stop-color="#CF6DFF"/>
<stop offset="1" stop-color="#0E0E0E"/>
</linearGradient>
<linearGradient id="paint10_linear_19_5473" x1="600" y1="7.45756" x2="601.056" y2="44.7253" gradientUnits="userSpaceOnUse">
<stop stop-color="#CF6DFF"/>
<stop offset="1" stop-color="#0E0E0E"/>
</linearGradient>
<linearGradient id="paint11_linear_19_5473" x1="102" y1="42.6162" x2="103.912" y2="80.6113" gradientUnits="userSpaceOnUse">
<stop stop-color="#CF6DFF"/>
<stop offset="1" stop-color="#0E0E0E"/>
</linearGradient>
<linearGradient id="paint12_linear_19_5473" x1="102" y1="42.6162" x2="103.912" y2="80.6113" gradientUnits="userSpaceOnUse">
<stop stop-color="#CF6DFF"/>
<stop offset="1" stop-color="#0E0E0E"/>
</linearGradient>
<linearGradient id="paint13_linear_19_5473" x1="102" y1="42.6162" x2="103.912" y2="80.6113" gradientUnits="userSpaceOnUse">
<stop stop-color="#CF6DFF"/>
<stop offset="1" stop-color="#0E0E0E"/>
</linearGradient>
<linearGradient id="paint14_linear_19_5473" x1="222" y1="244.077" x2="222.56" y2="269.459" gradientUnits="userSpaceOnUse">
<stop stop-color="#CF6DFF"/>
<stop offset="1" stop-color="#0E0E0E"/>
</linearGradient>
<linearGradient id="paint15_linear_19_5473" x1="222" y1="244.077" x2="222.56" y2="269.459" gradientUnits="userSpaceOnUse">
<stop stop-color="#CF6DFF"/>
<stop offset="1" stop-color="#0E0E0E"/>
</linearGradient>
<linearGradient id="paint16_linear_19_5473" x1="581" y1="242.808" x2="582.564" y2="261.724" gradientUnits="userSpaceOnUse">
<stop stop-color="#CF6DFF"/>
<stop offset="1" stop-color="#0E0E0E"/>
</linearGradient>
<linearGradient id="paint17_linear_19_5473" x1="581" y1="242.808" x2="582.564" y2="261.724" gradientUnits="userSpaceOnUse">
<stop stop-color="#CF6DFF"/>
<stop offset="1" stop-color="#0E0E0E"/>
</linearGradient>
<linearGradient id="paint18_linear_19_5473" x1="207" y1="11.8081" x2="207.38" y2="30.8462" gradientUnits="userSpaceOnUse">
<stop stop-color="#CF6DFF"/>
<stop offset="1" stop-color="#0E0E0E"/>
</linearGradient>
<linearGradient id="paint19_linear_19_5473" x1="207" y1="11.8081" x2="207.38" y2="30.8462" gradientUnits="userSpaceOnUse">
<stop stop-color="#CF6DFF"/>
<stop offset="1" stop-color="#0E0E0E"/>
</linearGradient>
<linearGradient id="paint20_linear_19_5473" x1="207" y1="11.8081" x2="207.38" y2="30.8462" gradientUnits="userSpaceOnUse">
<stop stop-color="#CF6DFF"/>
<stop offset="1" stop-color="#0E0E0E"/>
</linearGradient>
<linearGradient id="paint21_linear_19_5473" x1="207" y1="11.8081" x2="207.38" y2="30.8462" gradientUnits="userSpaceOnUse">
<stop stop-color="#CF6DFF"/>
<stop offset="1" stop-color="#0E0E0E"/>
</linearGradient>
<linearGradient id="paint22_linear_19_5473" x1="385" y1="249.539" x2="385.204" y2="262.233" gradientUnits="userSpaceOnUse">
<stop stop-color="#CF6DFF"/>
<stop offset="1" stop-color="#0E0E0E"/>
</linearGradient>
<linearGradient id="paint23_linear_19_5473" x1="385" y1="249.539" x2="385.204" y2="262.233" gradientUnits="userSpaceOnUse">
<stop stop-color="#CF6DFF"/>
<stop offset="1" stop-color="#0E0E0E"/>
</linearGradient>
<linearGradient id="paint24_linear_19_5473" x1="385" y1="249.539" x2="385.204" y2="262.233" gradientUnits="userSpaceOnUse">
<stop stop-color="#CF6DFF"/>
<stop offset="1" stop-color="#0E0E0E"/>
</linearGradient>
<linearGradient id="paint25_linear_19_5473" x1="385" y1="249.539" x2="385.204" y2="262.233" gradientUnits="userSpaceOnUse">
<stop stop-color="#CF6DFF"/>
<stop offset="1" stop-color="#0E0E0E"/>
</linearGradient>
<linearGradient id="paint26_linear_19_5473" x1="385" y1="249.539" x2="385.204" y2="262.233" gradientUnits="userSpaceOnUse">
<stop stop-color="#CF6DFF"/>
<stop offset="1" stop-color="#0E0E0E"/>
</linearGradient>
</defs>
</svg>
