<svg width="24" height="24" viewBox="0 0 24 24" fill="none" xmlns="http://www.w3.org/2000/svg">
<path d="M0 0H23.4654V23.4654H0V0Z" fill="#6DA544"/>
<path d="M11.7325 4.59225L21.4257 11.7327L11.7325 18.8731L2.03931 11.7327L11.7325 4.59225Z" fill="#FFDA44"/>
<path d="M7.98374 10.1286C7.75571 10.6531 7.64317 11.2205 7.65376 11.7923L15.0784 14.0747C15.4055 13.6074 15.6303 13.0765 15.7383 12.5164C13.8776 9.52366 10.2524 8.8362 7.98832 10.1332L7.98374 10.1286Z" fill="#EEEEEE"/>
<path d="M11.719 7.65376C11.0487 7.65545 10.3892 7.82231 9.79869 8.13957C8.98602 8.57804 8.34617 9.27929 7.98379 10.1286C9.3724 9.83377 10.8133 9.89879 12.1697 10.3175C13.5261 10.7362 14.753 11.4947 15.7338 12.521C15.916 11.5932 15.7702 10.6309 15.3213 9.79865C14.9712 9.14857 14.4512 8.60571 13.8168 8.22796C13.1824 7.85022 12.4574 7.65177 11.719 7.65376ZM9.7162 11.4806C9.01683 11.4783 8.32126 11.5834 7.65381 11.7923C7.66152 12.4467 7.82658 13.0896 8.13503 13.6668C8.38885 14.1388 8.73321 14.5561 9.14841 14.895C9.56361 15.2339 10.0415 15.4876 10.5548 15.6417C11.0681 15.7958 11.6068 15.8472 12.14 15.793C12.6731 15.7388 13.1904 15.58 13.6622 15.3258C14.2224 15.0242 14.7042 14.5957 15.0692 14.0747C14.426 13.2715 13.6117 12.6219 12.6856 12.1732C11.7596 11.7244 10.7452 11.4878 9.7162 11.4806Z" fill="#0052B4"/>
</svg>
