<svg width="63" height="46" viewBox="0 0 63 46" fill="none" xmlns="http://www.w3.org/2000/svg">
<path d="M36.2273 3.37065L36.2273 17.5098L29.7308 20.0223L29.7256 20.0223L20.8553 23.4492L2.55291 16.3764L36.2273 3.37065Z" fill="url(#paint0_linear_19_5461)"/>
<path d="M62.1383 27.8219L25.9429 14.0239V0L44.472 7.06172L62.1383 13.8024V27.8219Z" fill="url(#paint1_linear_19_5461)"/>
<path d="M25.9429 42.0483V27.9091L32.4394 25.3967H32.4446L41.3149 21.9697L59.6172 29.0426L25.9429 42.0483Z" fill="url(#paint2_linear_19_5461)"/>
<path d="M61.1063 26.2862L27.062 1.84277L61.1063 14.932V26.2862Z" fill="white"/>
<path d="M59.8027 29.1559L32.521 25.5158L41.4287 22.0918L59.8027 29.1559Z" fill="black"/>
<path d="M62.1703 28.0809L25.9976 14.1772V0.0458984C26.1093 2.40252 26.1571 4.75333 26.2424 7.10996L26.3271 10.6387L26.3858 13.7969C29.3277 14.8432 32.2642 15.9224 35.1953 17.0346L39.7172 18.7559L44.2334 20.5174C47.2392 21.7155 50.2392 22.9271 53.2341 24.1782C54.7237 24.8141 56.2238 25.4364 57.7082 26.0917C59.1926 26.747 60.6911 27.3919 62.1703 28.0809Z" fill="black"/>
<path d="M62.1704 24.4388C62.0264 22.6922 61.936 20.9456 61.8669 19.1951C61.8243 18.321 61.7924 17.4472 61.7712 16.5739C61.7499 15.8455 61.7286 15.1236 61.713 14.3952L59.8138 13.7134L57.6007 12.886L55.3984 12.025C54.6588 11.7403 53.9301 11.4428 53.2014 11.1381C52.4727 10.8334 51.7383 10.5358 51.0096 10.2111C50.2809 9.88635 49.5543 9.58878 48.8339 9.25111C47.3817 8.60421 45.9404 7.91398 44.5146 7.16553L62.1704 13.954V24.4388Z" fill="black"/>
<path d="M0.0318394 17.5971L36.2273 31.395L36.2273 45.4189L17.6981 38.3572L0.0318384 31.6165L0.0318394 17.5971Z" fill="url(#paint3_linear_19_5461)"/>
<path d="M1.06407 19.2338L35.1084 43.6772L1.06407 30.588L1.06407 19.2338Z" fill="white"/>
<path d="M2.36773 16.3647L29.6494 20.0047L20.7417 23.4287L2.36773 16.3647Z" fill="black"/>
<path d="M5.08044e-05 21.0812C0.144025 22.8278 0.234412 24.5744 0.30354 26.3249C0.34616 27.199 0.37802 28.0728 0.399174 28.9461C0.420485 29.6745 0.441794 30.3964 0.457387 31.1248L2.3566 31.8067L4.56974 32.634L6.77197 33.495C7.51158 33.7797 8.24029 34.0772 8.969 34.3819C9.6977 34.6866 10.4321 34.9842 11.1608 35.3089C11.8895 35.6337 12.6162 35.9312 13.3365 36.2689C14.7888 36.9158 16.2301 37.606 17.6558 38.3545L5.00679e-05 31.566L5.08044e-05 21.0812Z" fill="black"/>
<defs>
<linearGradient id="paint0_linear_19_5461" x1="405.332" y1="484.895" x2="408.596" y2="514.854" gradientUnits="userSpaceOnUse">
<stop stop-color="#7E00CC"/>
<stop offset="0.0001" stop-color="#AD00FF"/>
<stop offset="1" stop-color="#7C00F8"/>
</linearGradient>
<linearGradient id="paint1_linear_19_5461" x1="-363.159" y1="-480.261" x2="-363.159" y2="-435.468" gradientUnits="userSpaceOnUse">
<stop stop-color="#A3A1A1"/>
<stop offset="1" stop-color="#959292"/>
</linearGradient>
<linearGradient id="paint2_linear_19_5461" x1="-343.162" y1="-439.476" x2="-346.426" y2="-469.435" gradientUnits="userSpaceOnUse">
<stop stop-color="#7E00CC"/>
<stop offset="0.0001" stop-color="#AD00FF"/>
<stop offset="1" stop-color="#7C00F8"/>
</linearGradient>
<linearGradient id="paint3_linear_19_5461" x1="425.329" y1="525.68" x2="425.329" y2="480.887" gradientUnits="userSpaceOnUse">
<stop stop-color="white"/>
<stop offset="1" stop-color="#959292"/>
</linearGradient>
</defs>
</svg>
