<svg width="64" height="67" viewBox="0 0 64 67" fill="none" xmlns="http://www.w3.org/2000/svg">
<path d="M26.2066 65.8254H24.1546L21.3106 59.1174C21.3826 59.7094 21.4346 60.2454 21.4666 60.7254C21.5066 61.2054 21.5266 61.7774 21.5266 62.4414V65.8254H20.0866V57.5334H22.0906L24.9826 64.2534C24.9346 63.9334 24.8866 63.5134 24.8386 62.9934C24.7906 62.4654 24.7666 61.9414 24.7666 61.4214V57.5334H26.2066V65.8254ZM33.1771 65.8254H31.8451L31.7611 64.9374C31.5291 65.2974 31.2531 65.5654 30.9331 65.7414C30.6211 65.9174 30.2491 66.0054 29.8171 66.0054C29.2491 66.0054 28.8091 65.8334 28.4971 65.4894C28.1931 65.1374 28.0411 64.6534 28.0411 64.0374V59.4774H29.5771V63.8454C29.5771 64.2054 29.6371 64.4614 29.7571 64.6134C29.8851 64.7654 30.0851 64.8414 30.3571 64.8414C30.8451 64.8414 31.2731 64.5414 31.6411 63.9414V59.4774H33.1771V65.8254ZM38.0149 62.4294L40.1389 65.8254H38.3629L37.0549 63.3054L35.7589 65.8254H34.0669L36.1789 62.4774L34.2829 59.4774H36.0349L37.1149 61.6374L38.1829 59.4774H39.8509L38.0149 62.4294ZM44.6629 65.5254C44.4389 65.6854 44.1869 65.8054 43.9069 65.8854C43.6349 65.9654 43.3549 66.0054 43.0669 66.0054C42.4429 65.9974 41.9669 65.8214 41.6389 65.4774C41.3189 65.1254 41.1589 64.6094 41.1589 63.9294V60.5814H40.1629V59.4774H41.1589V58.0734L42.6949 57.8934V59.4774H44.1709L44.0149 60.5814H42.6949V63.8934C42.6949 64.2054 42.7469 64.4294 42.8509 64.5654C42.9629 64.7014 43.1349 64.7694 43.3669 64.7694C43.5989 64.7694 43.8509 64.6934 44.1229 64.5414L44.6629 65.5254Z" fill="#CF6DFF"/>
<path d="M19.6823 47.5135L19.5407 47.2308C19.258 46.6649 19.258 46.099 19.3996 45.3915H4.12229L26.7558 5.21811L36.2335 22.3347L39.3452 20.0711L29.8675 2.95451C29.7264 2.67181 28.5946 0.974609 26.7558 0.974609C25.9067 0.974609 24.6338 1.25731 23.6436 3.09611L0.72739 43.6943C0.58579 44.1191 -0.40441 45.9579 0.444191 47.5135C1.01009 48.3626 1.85919 49.2112 3.83959 49.2112H23.0777C21.0973 49.2112 20.1071 48.3621 19.6823 47.5135Z" fill="#CF6DFF"/>
<path d="M63.2505 43.834L44.861 10.7331C44.5783 10.4504 43.5881 8.61108 41.7488 8.61108C40.9002 8.61108 39.6273 9.03538 38.6371 10.7331L36.2324 14.6939V22.3328L41.7493 12.8551L59.9972 45.3901H53.0658C53.1818 46.0636 53.0827 46.7565 52.7826 47.3705L52.641 47.5121C51.7924 49.0677 49.6704 49.2093 49.3877 49.2093H60.1383C60.5626 49.2093 62.543 49.0682 63.5332 47.5121C63.9575 46.8046 64.2407 45.5317 63.2505 43.834Z" fill="#CF6DFF"/>
<path d="M53.2089 47.5135V47.3719L53.3505 47.0892C53.4916 46.5233 53.6332 45.9574 53.4916 45.3915L52.9262 43.6943L38.498 18.515L36.376 14.6958H36.2344L34.1124 18.515L19.6842 43.6938L19.1188 45.3915C18.9818 46.1108 19.081 46.8551 19.4015 47.5135C19.9674 48.3621 20.816 49.2112 22.7964 49.2112H49.6734C50.0977 49.2112 52.2197 49.0696 53.2099 47.5135H53.2089ZM36.2339 22.3342L49.3897 45.3915H23.0786L36.2339 22.3342Z" fill="#CF6DFF"/>
</svg>
