<svg width="70" height="60" viewBox="0 0 70 60" fill="none" xmlns="http://www.w3.org/2000/svg">
<path d="M0.200195 18.7964C0.200195 28.9132 15.7914 37.1153 35.0238 37.1153C54.2563 37.1153 69.8475 28.9132 69.8475 18.7964C69.8475 8.67959 54.2557 0.477539 35.0238 0.477539C15.7914 0.477539 0.200195 8.67959 0.200195 18.7964Z" fill="url(#paint0_radial_0_1)"/>
<path d="M35.0239 35.755C53.5049 35.755 68.4872 28.1618 68.4872 18.7965C68.4872 9.42999 53.5049 1.83789 35.0239 1.83789C16.5429 1.83789 1.56055 9.42999 1.56055 18.7965C1.56055 28.1618 16.5429 35.755 35.0239 35.755Z" fill="#CF6DFF"/>
<path d="M19.1205 20.8992C20.6402 20.8992 21.7742 20.619 22.4919 20.0667C23.2025 19.5193 23.6927 18.572 23.9501 17.2509C24.1895 16.0157 24.0981 15.1538 23.6781 14.6881C23.2493 14.2125 22.3216 13.9715 20.921 13.9715H18.4921L17.1464 20.8992H19.1205ZM11.1769 29.4326C11.1212 29.4325 11.0662 29.4201 11.0158 29.3963C10.9654 29.3724 10.921 29.3377 10.8856 29.2947C10.8502 29.2516 10.8248 29.2012 10.8112 29.1472C10.7976 29.0931 10.7962 29.0368 10.8069 28.9821L14.3747 10.6246C14.3916 10.5388 14.4376 10.4614 14.5051 10.4058C14.5726 10.3501 14.6572 10.3196 14.7447 10.3193H22.4353C24.8523 10.3193 26.6511 10.9755 27.7823 12.27C28.9185 13.5705 29.27 15.39 28.8254 17.6758C28.6442 18.6068 28.333 19.4714 27.9004 20.2463C27.4501 21.0432 26.8756 21.7632 26.1984 22.3792C25.3654 23.1584 24.4224 23.7243 23.3978 24.0567C22.3901 24.3854 21.0951 24.5519 19.5509 24.5519H16.4364L15.5473 29.1268C15.5305 29.2129 15.4843 29.2905 15.4166 29.3463C15.3489 29.4021 15.2639 29.4326 15.1762 29.4326H11.1769Z" fill="black"/>
<path d="M18.8036 14.3493H20.9208C22.6114 14.3493 23.1985 14.7204 23.3981 14.9419C23.7284 15.3086 23.7915 16.0829 23.5783 17.1793C23.3394 18.4074 22.8965 19.2785 22.2615 19.7671C21.6118 20.2677 20.554 20.5213 19.1203 20.5213H17.6044L18.8041 14.3499L18.8036 14.3493ZM22.4351 9.94195H14.745C14.5697 9.94197 14.3997 10.0029 14.2644 10.1144C14.129 10.2258 14.0365 10.3809 14.0028 10.553L10.435 28.911C10.414 29.0204 10.4173 29.133 10.4448 29.241C10.4723 29.3489 10.5233 29.4494 10.5942 29.5353C10.665 29.6212 10.754 29.6904 10.8547 29.738C10.9554 29.7856 11.0653 29.8103 11.1767 29.8105H15.176C15.3513 29.8103 15.5212 29.7492 15.6564 29.6377C15.7917 29.5261 15.884 29.371 15.9176 29.1989L16.7474 24.9297H19.5501C21.1346 24.9297 22.4688 24.7567 23.5151 24.4161C24.5909 24.0667 25.5806 23.4742 26.4566 22.6548C27.162 22.0123 27.7606 21.2616 28.2299 20.4309C28.6821 19.6218 29.0075 18.7186 29.1957 17.7479C29.6637 15.3412 29.2833 13.4145 28.0661 12.0216C26.8604 10.6411 24.9658 9.94141 22.4351 9.94141V9.94195ZM16.6875 21.2765H19.1203C20.7325 21.2765 21.9334 20.9734 22.7224 20.3651C23.5119 19.7579 24.0435 18.7436 24.321 17.3229C24.5849 15.9583 24.4646 14.9957 23.9591 14.4347C23.4526 13.8743 22.4405 13.5935 20.9208 13.5935H18.1806L16.6875 21.2765ZM22.4356 10.6961C24.7492 10.6961 26.4365 11.3039 27.4975 12.5178C28.5586 13.7323 28.8774 15.4272 28.4552 17.6032C28.28 18.4999 27.9856 19.3193 27.571 20.0615C27.1553 20.8047 26.6133 21.4838 25.9435 22.1003C25.1448 22.8474 24.2584 23.3801 23.2817 23.6973C22.3056 24.0151 21.0617 24.1734 19.5507 24.1734H16.1249L15.1765 29.0541H11.1772L14.7456 10.6961H22.4356Z" fill="#CF6DFF"/>
<path d="M37.9942 24.5518C37.9384 24.5518 37.8833 24.5395 37.8329 24.5158C37.7824 24.492 37.7378 24.4574 37.7024 24.4144C37.6669 24.3714 37.6414 24.321 37.6277 24.267C37.614 24.2129 37.6124 24.1565 37.6231 24.1018L39.201 15.9792C39.3517 15.2065 39.3147 14.6526 39.0976 14.4175C38.9643 14.2744 38.5649 14.0345 37.3837 14.0345H34.5238L32.5399 24.2465C32.5229 24.3325 32.4765 24.4099 32.4087 24.4655C32.3409 24.5211 32.2559 24.5514 32.1683 24.5512H28.2017C28.1459 24.5512 28.0909 24.539 28.0405 24.5153C27.99 24.4915 27.9455 24.457 27.91 24.414C27.8745 24.3711 27.8489 24.3208 27.8351 24.2668C27.8212 24.2129 27.8195 24.1565 27.83 24.1018L31.3984 5.74373C31.4153 5.65773 31.4615 5.58027 31.5292 5.52459C31.5969 5.46891 31.6818 5.43847 31.7694 5.43848H35.7361C35.7918 5.43844 35.8468 5.45072 35.8973 5.47443C35.9477 5.49815 35.9923 5.53271 36.0278 5.57566C36.0633 5.6186 36.0888 5.66886 36.1027 5.72284C36.1165 5.77682 36.1182 5.8332 36.1077 5.88792L35.2469 10.3192H38.3228C40.6663 10.3192 42.2552 10.7317 43.1807 11.5821C44.1237 12.4489 44.4186 13.8348 44.0557 15.7027L42.3955 24.2465C42.3785 24.3324 42.3322 24.4097 42.2646 24.4653C42.1969 24.5209 42.112 24.5512 42.0245 24.5512H37.9942V24.5518Z" fill="black"/>
<path d="M35.7367 5.06055H31.7695C31.5941 5.06059 31.4241 5.12162 31.2887 5.23319C31.1533 5.34476 31.0609 5.49994 31.0274 5.67214L27.4596 24.0296C27.4384 24.139 27.4417 24.2517 27.4691 24.3597C27.4966 24.4677 27.5476 24.5683 27.6184 24.6543C27.6893 24.7403 27.7783 24.8095 27.879 24.8571C27.9798 24.9047 28.0898 24.9295 28.2012 24.9296H32.1684C32.3438 24.9296 32.5138 24.8685 32.6492 24.757C32.7846 24.6454 32.877 24.4902 32.9106 24.318L34.8351 14.4123H37.3827C38.5623 14.4123 38.8104 14.6643 38.8197 14.6757C38.8915 14.7519 38.9856 15.1083 38.83 15.9076L37.2521 24.0296C37.2309 24.1391 37.2342 24.2518 37.2617 24.3599C37.2892 24.4679 37.3402 24.5685 37.4111 24.6545C37.4821 24.7405 37.5711 24.8097 37.6719 24.8573C37.7727 24.9049 37.8828 24.9296 37.9943 24.9296H42.0251C42.2004 24.9294 42.3703 24.8683 42.5056 24.7568C42.6409 24.6452 42.7332 24.4901 42.7667 24.318L44.4268 15.7753C44.8159 13.7697 44.4829 12.2658 43.4365 11.3043C42.4375 10.3869 40.7649 9.9413 38.3229 9.9413H35.7057L36.4789 5.96106C36.5002 5.85159 36.4969 5.73877 36.4695 5.63068C36.442 5.52259 36.391 5.42191 36.3201 5.33585C36.2492 5.24979 36.1601 5.18048 36.0592 5.13288C35.9584 5.08529 35.8482 5.06059 35.7367 5.06055ZM35.7367 5.81687L34.7883 10.6965H38.3229C40.5467 10.6965 42.0811 11.085 42.9245 11.8609C43.7695 12.6369 44.022 13.8932 43.6852 15.6317L42.0246 24.1738H37.9943L39.5728 16.0512C39.7523 15.1273 39.6859 14.4972 39.3741 14.1609C39.0624 13.8252 38.3985 13.6571 37.3838 13.6571H34.2121L32.1684 24.1733H28.2007L31.769 5.81524H35.7367V5.81687Z" fill="#CF6DFF"/>
<path d="M27.7992 51.5332C28.8632 51.5332 29.6872 51.7532 30.2712 52.1932C30.8632 52.6332 31.1592 53.2932 31.1592 54.1732C31.1592 55.0932 30.8632 55.7852 30.2712 56.2492C29.6792 56.7052 28.8912 56.9332 27.9072 56.9332H26.9352V59.8252H25.3512V51.5332H27.7992ZM27.7872 55.7452C28.3552 55.7452 28.7832 55.6292 29.0712 55.3972C29.3592 55.1572 29.5032 54.7492 29.5032 54.1732C29.5032 53.1892 28.9312 52.6972 27.7872 52.6972H26.9352V55.7452H27.7872ZM36.9771 59.8252V56.1172H34.0251V59.8252H32.4411V51.5332H34.0251V54.8572H36.9771V51.5332H38.5731V59.8252H36.9771ZM42.9516 51.5332C44.0156 51.5332 44.8396 51.7532 45.4236 52.1932C46.0156 52.6332 46.3116 53.2932 46.3116 54.1732C46.3116 55.0932 46.0156 55.7852 45.4236 56.2492C44.8316 56.7052 44.0436 56.9332 43.0596 56.9332H42.0876V59.8252H40.5036V51.5332H42.9516ZM42.9396 55.7452C43.5076 55.7452 43.9356 55.6292 44.2236 55.3972C44.5116 55.1572 44.6556 54.7492 44.6556 54.1732C44.6556 53.1892 44.0836 52.6972 42.9396 52.6972H42.0876V55.7452H42.9396Z" fill="#CF6DFF"/>
<path d="M52.6986 20.9578C54.2183 20.9578 55.3528 20.6776 56.071 20.1253C56.7806 19.5779 57.2714 18.6306 57.5287 17.3095C57.7681 16.0743 57.6773 15.2124 57.2567 14.7467C56.8279 14.2711 55.9002 14.0301 54.4996 14.0301H52.0712L50.7245 20.9578H52.6986ZM44.7566 29.4912C44.7008 29.4913 44.6456 29.479 44.5951 29.4552C44.5446 29.4314 44.5 29.3968 44.4646 29.3537C44.4291 29.3106 44.4036 29.2602 44.3899 29.206C44.3762 29.1519 44.3747 29.0954 44.3855 29.0407L47.9533 10.6832C47.9702 10.5972 48.0165 10.5197 48.0841 10.464C48.1518 10.4084 48.2368 10.3779 48.3244 10.3779H56.0144C58.4314 10.3779 60.2303 11.0341 61.361 12.3286C62.4976 13.629 62.8486 15.4486 62.404 17.7344C62.2341 18.6348 61.9221 19.5025 61.4796 20.3048C61.0291 21.1017 60.4546 21.8217 59.7776 22.4378C58.9451 23.217 58.001 23.7829 56.977 24.1153C55.9693 24.444 54.6743 24.6105 53.1295 24.6105H50.0155L49.127 29.1854C49.1102 29.2716 49.0639 29.3493 48.9961 29.4051C48.9283 29.4609 48.8432 29.4913 48.7553 29.4912H44.7566Z" fill="black"/>
<path d="M52.3822 14.4079H54.4994C56.19 14.4079 56.7771 14.779 56.9762 15.0005C57.3081 15.3672 57.3702 16.1415 57.1574 17.2379C56.918 18.466 56.4751 19.3371 55.8401 19.8257C55.1899 20.3263 54.1321 20.5799 52.6989 20.5799H51.183L52.3822 14.4079ZM56.0137 10.0005H48.3236C48.1484 10.0007 47.9786 10.0617 47.8433 10.1732C47.708 10.2846 47.6157 10.4396 47.582 10.6116L44.0137 28.9696C43.9926 29.079 43.9959 29.1917 44.0235 29.2997C44.051 29.4076 44.1021 29.5082 44.173 29.5941C44.2439 29.68 44.3329 29.7492 44.4336 29.7968C44.5344 29.8443 44.6444 29.869 44.7558 29.8691H48.7551C48.9305 29.8689 49.1003 29.8078 49.2356 29.6962C49.3709 29.5847 49.4632 29.4296 49.4968 29.2575L50.3265 24.9883H53.1287C54.7127 24.9883 56.0474 24.8153 57.0932 24.4747C58.1695 24.1253 59.1592 23.5328 60.0358 22.7128C60.7409 22.0705 61.3393 21.32 61.8085 20.4895C62.2612 19.6804 62.5855 18.7772 62.7743 17.8065C63.2423 15.3998 62.8625 13.4731 61.6448 12.0802C60.439 10.6997 58.5449 10 56.0131 10L56.0137 10.0005ZM50.2661 21.3351H52.6983C54.3111 21.3351 55.5114 21.032 56.3015 20.4237C57.0905 19.8165 57.6226 18.8022 57.899 17.3815C58.164 16.0169 58.0438 15.0543 57.5372 14.4933C57.0312 13.9329 56.0186 13.6521 54.4994 13.6521H51.7597L50.2661 21.3351ZM56.0137 10.7547C58.3267 10.7547 60.0151 11.3625 61.0756 12.5764C62.1366 13.7909 62.456 15.4858 62.0327 17.6617C61.8586 18.5585 61.5637 19.3779 61.1491 20.1201C60.7339 20.8633 60.1914 21.5424 59.5211 22.1589C58.7228 22.906 57.8359 23.4387 56.8592 23.7559C55.8836 24.0736 54.6403 24.232 53.1287 24.232H49.7035L48.754 29.1127H44.7548L48.3231 10.7547H56.0137Z" fill="#CF6DFF"/>
<defs>
<radialGradient id="paint0_radial_0_1" cx="0" cy="0" r="1" gradientUnits="userSpaceOnUse" gradientTransform="translate(21.1085 6.91773) scale(45.7285)">
<stop stop-color="#E9BDFF"/>
<stop offset="0.3" stop-color="#E9BDFF"/>
<stop offset="0.75" stop-color="#CF6DFF"/>
<stop offset="1" stop-color="#CF6DFF"/>
</radialGradient>
</defs>
</svg>
