<svg width="61" height="64" viewBox="0 0 61 64" fill="none" xmlns="http://www.w3.org/2000/svg">
<path d="M21.3049 55.3293C21.8889 55.3293 22.3969 55.4133 22.8289 55.5813C23.2609 55.7493 23.6649 56.0053 24.0409 56.3493L23.2609 57.2493C22.9649 57.0013 22.6649 56.8213 22.3609 56.7093C22.0649 56.5973 21.7449 56.5413 21.4009 56.5413C21.0169 56.5413 20.7049 56.6293 20.4649 56.8053C20.2329 56.9733 20.1169 57.2133 20.1169 57.5253C20.1169 57.7333 20.1609 57.9053 20.2489 58.0413C20.3449 58.1773 20.5129 58.3053 20.7529 58.4253C20.9929 58.5453 21.3489 58.6773 21.8209 58.8213C22.6369 59.0773 23.2489 59.3973 23.6569 59.7813C24.0729 60.1573 24.2809 60.7093 24.2809 61.4373C24.2809 61.9333 24.1529 62.3733 23.8969 62.7573C23.6489 63.1413 23.2889 63.4413 22.8169 63.6573C22.3449 63.8733 21.7849 63.9813 21.1369 63.9813C20.5049 63.9813 19.9369 63.8813 19.4329 63.6813C18.9369 63.4733 18.5089 63.1933 18.1489 62.8413L18.9649 61.9293C19.2849 62.2013 19.6169 62.4093 19.9609 62.5533C20.3049 62.6893 20.6849 62.7573 21.1009 62.7573C21.5569 62.7573 21.9249 62.6493 22.2049 62.4333C22.4849 62.2173 22.6249 61.9133 22.6249 61.5213C22.6249 61.2813 22.5769 61.0853 22.4809 60.9333C22.3849 60.7733 22.2209 60.6333 21.9889 60.5133C21.7569 60.3853 21.4209 60.2533 20.9809 60.1173C20.1009 59.8453 19.4649 59.5173 19.0729 59.1333C18.6809 58.7493 18.4849 58.2453 18.4849 57.6213C18.4849 57.1653 18.6049 56.7653 18.8449 56.4213C19.0849 56.0773 19.4169 55.8093 19.8409 55.6173C20.2729 55.4253 20.7609 55.3293 21.3049 55.3293ZM30.2758 62.1213C30.2758 62.3693 30.3118 62.5533 30.3838 62.6733C30.4638 62.7853 30.5878 62.8733 30.7558 62.9373L30.4318 63.9573C30.0718 63.9253 29.7758 63.8373 29.5438 63.6933C29.3198 63.5493 29.1478 63.3293 29.0278 63.0333C28.8118 63.3533 28.5398 63.5933 28.2118 63.7533C27.8918 63.9053 27.5318 63.9813 27.1318 63.9813C26.4998 63.9813 25.9998 63.8013 25.6318 63.4413C25.2638 63.0813 25.0798 62.6093 25.0798 62.0253C25.0798 61.3373 25.3278 60.8133 25.8238 60.4533C26.3278 60.0853 27.0438 59.9013 27.9718 59.9013H28.7638V59.5413C28.7638 59.1333 28.6678 58.8493 28.4758 58.6893C28.2918 58.5213 27.9918 58.4373 27.5758 58.4373C27.1118 58.4373 26.5518 58.5493 25.8958 58.7733L25.5358 57.7293C26.3278 57.4253 27.0958 57.2733 27.8398 57.2733C29.4638 57.2733 30.2758 58.0013 30.2758 59.4573V62.1213ZM27.5398 62.8653C28.0598 62.8653 28.4678 62.6053 28.7638 62.0853V60.8013H28.1278C27.1358 60.8013 26.6398 61.1693 26.6398 61.9053C26.6398 62.2093 26.7158 62.4453 26.8678 62.6133C27.0198 62.7813 27.2438 62.8653 27.5398 62.8653ZM34.0214 57.2733C34.8774 57.2733 35.6294 57.5253 36.2774 58.0293L35.6774 58.9293C35.1334 58.5853 34.6014 58.4133 34.0814 58.4133C33.7774 58.4133 33.5414 58.4733 33.3734 58.5933C33.2054 58.7053 33.1214 58.8573 33.1214 59.0493C33.1214 59.1933 33.1574 59.3133 33.2294 59.4093C33.3014 59.5053 33.4294 59.5973 33.6134 59.6853C33.8054 59.7653 34.0854 59.8573 34.4534 59.9613C35.1414 60.1453 35.6494 60.3893 35.9774 60.6933C36.3134 60.9973 36.4814 61.4213 36.4814 61.9653C36.4814 62.5973 36.2254 63.0933 35.7134 63.4533C35.2014 63.8053 34.5654 63.9813 33.8054 63.9813C33.2854 63.9813 32.8094 63.9013 32.3774 63.7413C31.9534 63.5813 31.5854 63.3613 31.2734 63.0813L32.0414 62.2173C32.5934 62.6333 33.1694 62.8413 33.7694 62.8413C34.1134 62.8413 34.3854 62.7733 34.5854 62.6373C34.7934 62.5013 34.8974 62.3133 34.8974 62.0733C34.8974 61.8893 34.8574 61.7453 34.7774 61.6413C34.7054 61.5293 34.5694 61.4333 34.3694 61.3533C34.1774 61.2653 33.8734 61.1613 33.4574 61.0413C32.8094 60.8653 32.3334 60.6213 32.0294 60.3093C31.7254 59.9893 31.5734 59.5933 31.5734 59.1213C31.5734 58.7693 31.6734 58.4533 31.8734 58.1733C32.0814 57.8933 32.3694 57.6733 32.7374 57.5133C33.1134 57.3533 33.5414 57.2733 34.0214 57.2733ZM39.6346 57.2733C40.4906 57.2733 41.2426 57.5253 41.8906 58.0293L41.2906 58.9293C40.7466 58.5853 40.2146 58.4133 39.6946 58.4133C39.3906 58.4133 39.1546 58.4733 38.9866 58.5933C38.8186 58.7053 38.7346 58.8573 38.7346 59.0493C38.7346 59.1933 38.7706 59.3133 38.8426 59.4093C38.9146 59.5053 39.0426 59.5973 39.2266 59.6853C39.4186 59.7653 39.6986 59.8573 40.0666 59.9613C40.7546 60.1453 41.2626 60.3893 41.5906 60.6933C41.9266 60.9973 42.0946 61.4213 42.0946 61.9653C42.0946 62.5973 41.8386 63.0933 41.3266 63.4533C40.8146 63.8053 40.1786 63.9813 39.4186 63.9813C38.8986 63.9813 38.4226 63.9013 37.9906 63.7413C37.5666 63.5813 37.1986 63.3613 36.8866 63.0813L37.6546 62.2173C38.2066 62.6333 38.7826 62.8413 39.3826 62.8413C39.7266 62.8413 39.9986 62.7733 40.1986 62.6373C40.4066 62.5013 40.5106 62.3133 40.5106 62.0733C40.5106 61.8893 40.4706 61.7453 40.3906 61.6413C40.3186 61.5293 40.1826 61.4333 39.9826 61.3533C39.7906 61.2653 39.4866 61.1613 39.0706 61.0413C38.4226 60.8653 37.9466 60.6213 37.6426 60.3093C37.3386 59.9893 37.1866 59.5933 37.1866 59.1213C37.1866 58.7693 37.2866 58.4533 37.4866 58.1733C37.6946 57.8933 37.9826 57.6733 38.3506 57.5133C38.7266 57.3533 39.1546 57.2733 39.6346 57.2733Z" fill="#CF6DFF"/>
<path d="M52.0733 26.8544L52.3208 26.8507C53.8846 26.8507 55.364 27.2144 56.6766 27.8632L56.6184 27.8369C57.7861 28.4009 58.7832 29.2646 59.5078 30.3399L59.5246 30.3662C60.1554 31.2917 60.4674 32.3975 60.4134 33.5162V33.505C60.387 34.0219 60.2575 34.5283 60.0328 34.9945C59.8081 35.4607 59.4925 35.8773 59.1046 36.2199L59.1008 36.2237C58.6824 36.6349 58.1804 36.9513 57.629 37.1519L57.6008 37.1612C57.2884 37.2238 57.1165 37.1768 57.0853 37.0207C57.0541 36.8643 57.1946 36.6925 57.5071 36.505C58.3546 35.9912 58.9678 35.1625 59.1908 34.1857L59.1966 34.1612C59.2452 33.5101 59.1154 32.858 58.8216 32.275L58.8308 32.2957C58.4374 31.4666 57.8288 30.7581 57.0684 30.2444L57.0496 30.2332C55.8746 29.4833 54.5335 29.0333 53.144 28.9225L53.114 28.9207C51.1242 28.6375 49.0948 28.8733 47.2228 29.6049L47.3016 29.5769C47.5734 30.2125 47.744 30.9494 47.7683 31.7219V31.7312C47.7548 32.4839 47.5507 33.2209 47.1754 33.8732C46.7999 34.5257 46.2653 35.0725 45.6215 35.4625L45.6008 35.4737C45.0196 35.8862 44.3558 36.2482 43.649 36.5294L43.5834 36.5519C43.0706 36.7988 42.5035 36.9112 41.9353 36.8782H41.9446C40.7584 36.6293 40.4772 35.5981 41.1008 33.7844C41.3728 32.995 41.7534 32.3107 42.2353 31.7087L42.224 31.7219C42.8408 30.9157 43.5178 30.2087 44.2658 29.5825L44.2866 29.5657L44.1028 29.2919C43.7386 28.6627 43.4336 28.0012 43.1916 27.3157L43.1653 27.2294C42.9778 26.6043 42.8215 26.0113 42.6966 25.4499L42.6028 24.7937L41.6653 26.5731C40.8528 28.0731 40.0716 29.3851 39.3216 30.5087L39.0403 30.9775C39.3553 31.7425 39.5878 32.6294 39.6928 33.5557L39.6966 33.6025C39.7484 34.3255 39.6132 35.0497 39.3038 35.7051C38.9944 36.3607 38.5214 36.9254 37.9303 37.3449L37.9171 37.3544C37.3488 37.7013 36.7601 38.0144 36.1546 38.2919L36.0421 38.3387C35.3342 38.6416 34.5781 38.8161 33.809 38.8544H33.7921C33.2695 38.8907 32.7463 38.7911 32.2733 38.5657L32.2921 38.5731C32.1064 38.4152 31.9783 38.2003 31.9277 37.9617C31.8772 37.7233 31.907 37.4747 32.0128 37.255L32.009 37.2625C32.759 36.2107 33.4978 35.2957 34.2834 34.4219L34.259 34.4499L36.3216 31.8269L35.9484 30.9832C35.6245 30.3812 35.351 29.7535 35.1308 29.1062L35.1046 29.0162C34.9171 28.3913 34.761 27.7981 34.6358 27.2369L34.5421 26.5807L33.6046 28.8307C32.856 30.5794 32.1684 32.0788 31.5421 33.3287C30.6084 35.2037 29.8272 36.6413 29.1984 37.6412L29.0108 37.9225C28.2622 39.1088 27.5434 39.7019 26.8546 39.7019C26.166 39.7019 25.699 39.2644 25.454 38.3894C25.2631 37.6885 25.1672 36.9652 25.169 36.2387L25.1708 36.0362V36.0457L25.3583 34.7332V34.8269C24.8584 36.0131 24.3584 37.1063 23.8584 38.1062C23.554 38.7083 23.2009 39.2846 22.8028 39.8294L22.8271 39.7937C22.4408 40.1987 21.8971 40.4499 21.2953 40.4499H21.2803C21.2408 40.4537 21.1958 40.4537 21.1508 40.4537C20.6956 40.4542 20.2564 40.2851 19.919 39.9794L19.9208 39.9812C19.2558 39.2987 18.7766 38.4568 18.5296 37.5362L18.5203 37.4969C18.1519 36.4511 17.9908 35.3437 18.0458 34.2362V34.255C18.194 32.7625 18.4921 31.3957 18.929 30.0925L18.8896 30.2257L15.5166 32.1944V32.2881C16.1318 33.581 16.39 35.0149 16.2646 36.4412L16.2666 36.4112C16.1758 38.2654 15.5842 40.0603 14.5547 41.6049L14.579 41.5675C13.5497 43.2143 12.0333 44.4999 10.2403 45.2462L10.1784 45.2687C9.10056 45.7447 7.93474 45.9887 6.75652 45.985C5.97277 45.985 5.21152 45.88 4.49152 45.6812L4.55152 45.6944C3.96972 45.5012 3.47581 45.107 3.1584 44.5825L3.15277 44.5712C2.69851 43.9079 2.43696 43.1317 2.39715 42.3287V42.3175C2.27856 41.1796 2.47917 40.031 2.97652 39.0007L2.95965 39.0381C4.00959 37.2344 5.50476 35.7302 7.30214 34.6694L7.3584 34.6394C8.69959 33.7174 10.1079 32.8969 11.5715 32.1849L11.7703 32.0969L12.239 31.8157C11.6765 31.3781 10.6453 30.6281 9.14527 29.5657C7.25361 28.3055 5.4529 26.914 3.75652 25.4012L3.8034 25.4425C2.19577 24.0653 1.0552 22.223 0.539021 20.1699L0.524021 20.0987C0.30829 18.7688 0.54463 17.4049 1.19527 16.2249L1.18027 16.2569C2.18434 14.0735 3.64762 12.1325 5.47027 10.5663L5.49277 10.5475C7.44348 8.70624 9.62556 7.12672 11.984 5.84875L12.1471 5.76814C14.4368 4.46241 16.8397 3.3661 19.3266 2.49251L19.6453 2.39501C22.2298 1.46855 24.9547 0.994727 27.7003 0.994379H27.704C30.1002 0.918779 32.4786 1.42985 34.6321 2.48312L34.5458 2.44375C36.2333 3.21251 37.4971 4.66001 38.0033 6.43001L38.0146 6.47501C38.4544 8.25869 38.299 10.1372 37.5721 11.8244L37.5928 11.77C36.8304 13.6425 35.6822 15.3335 34.2233 16.7332L34.2178 16.7387C32.7612 18.1831 31.0277 19.3183 29.1215 20.0762L29.0183 20.1119C26.8603 21.0229 24.5534 21.5306 22.2121 21.61L22.1765 21.6119C20.7011 21.7706 19.2089 21.6368 17.7853 21.2182L17.8658 21.2387C16.9993 20.9671 16.1986 20.5183 15.5146 19.9207L15.5221 19.9262C15.0589 19.5503 14.6796 19.0814 14.4084 18.55L14.3971 18.5257C14.2097 18.0255 14.1941 17.7287 14.3503 17.635C14.5066 17.5412 14.6159 17.5256 14.6784 17.5881L15.1471 18.0569C15.6703 18.5425 16.2946 18.925 16.9846 19.1687L17.0221 19.18C17.9708 19.51 19.0658 19.7012 20.204 19.7012C20.5696 19.7012 20.9296 19.6825 21.284 19.6431L21.2408 19.6469C24.1447 19.3148 26.9296 18.3046 29.3708 16.6975L29.3016 16.7407C31.2625 15.5823 32.8958 13.9432 34.0471 11.9781L34.0808 11.9144C34.6453 11.0856 34.9828 10.0619 34.9828 8.95938C34.9828 8.28251 34.8553 7.63375 34.6228 7.03751L34.6358 7.07314C34.2884 6.51864 33.827 6.04434 33.2824 5.68165C32.7376 5.31896 32.1221 5.07618 31.4765 4.96938L31.4503 4.96562C29.3897 4.47947 27.2492 4.43664 25.1708 4.84001L25.2646 4.82501C22.2697 5.3516 19.3711 6.32562 16.6658 7.71438L16.8366 7.63375C9.15153 11.5088 5.1834 15.4769 4.93214 19.5382V19.63C4.93214 21.2669 5.57527 22.7537 6.6234 23.8525L6.62152 23.8507C7.8033 25.1671 9.13053 26.3451 10.5778 27.3625L10.6509 27.4112C11.9133 28.3508 13.1029 29.3843 14.2097 30.5032L14.2115 30.5069L14.399 30.6944L20.399 27.415C21.0652 26.4452 21.895 25.5988 22.8516 24.9137L22.8815 24.8931C23.6315 24.2631 24.584 23.8525 25.6283 23.7699L25.6453 23.7681C25.6828 23.7644 25.7258 23.7644 25.7708 23.7644C26.4703 23.7644 27.0703 24.1862 27.329 24.7899L27.3328 24.8012C27.6076 25.4252 27.7042 26.1131 27.6121 26.7887L27.614 26.77L27.4321 27.6944L27.7134 27.5069C27.8797 27.3806 28.077 27.3013 28.2844 27.2771C28.4918 27.2531 28.702 27.2851 28.8928 27.37L28.8853 27.3662C29.0948 27.4199 29.275 27.5537 29.3869 27.7388C29.4988 27.9241 29.5334 28.1457 29.4833 28.3562L29.4853 28.3507L29.204 29.3819C28.6416 31.6305 28.2671 33.2551 28.0808 34.255C27.9604 34.6847 27.9134 35.1316 27.9421 35.5769V35.5657C27.9734 35.9407 28.0202 36.1282 28.0828 36.1282C28.1454 36.1282 28.2697 35.9407 28.4558 35.5657L28.7371 34.9094C28.7996 34.9094 28.7996 34.9406 28.7371 35.0032L29.7683 32.8469C32.2058 27.4744 33.5178 24.4743 33.704 23.8469L34.2666 22.0675C34.3291 21.9425 34.579 21.8182 35.0166 21.6944C35.54 21.5566 36.0803 21.4934 36.6215 21.5069H36.6158C37.491 21.5069 37.9284 21.7256 37.9284 22.1632L37.8346 22.6319C37.5979 23.2981 37.4044 23.9789 37.2553 24.6699L37.2346 24.7882C37.1402 25.4231 37.1575 26.0696 37.2853 26.6987L37.2796 26.6631L37.3733 27.0362C37.5646 27.8182 37.8553 28.5044 38.2358 29.1307L38.2171 29.0987C38.9659 27.85 39.6847 26.5694 40.3733 25.2569C40.9171 24.3512 41.4233 23.3012 41.8303 22.2025L41.8733 22.0712C42.014 21.3644 42.1753 20.7682 42.3721 20.1869L42.3421 20.2919C42.4046 20.1044 42.6715 19.9637 43.1428 19.87C43.589 19.78 44.1008 19.7294 44.624 19.7294H44.6916H44.6878C45.5628 19.7294 46.0297 19.9481 46.0884 20.3857L45.9008 20.7587C45.6778 21.3887 45.4828 22.1462 45.3515 22.9244L45.3403 23.0087C45.2815 23.6491 45.3157 24.2945 45.4416 24.925L45.434 24.8819V25.255C45.6496 26.0725 45.9703 26.7907 46.3903 27.4412L46.3715 27.4112L46.6528 28.0675C48.3212 27.2596 50.1522 26.8427 52.0058 26.8487H52.079H52.0753L52.0733 26.8544ZM11.8753 40.4537C13.229 39.0581 13.9852 37.1894 13.9828 35.245C13.9832 34.4839 13.8682 33.7271 13.6415 33.0007L13.6565 33.0531L12.1565 33.9907C10.6265 34.8625 9.30277 35.8357 8.10465 36.9419L8.11964 36.9287C7.19881 37.7733 6.53632 38.8616 6.20902 40.0675L6.19777 40.1144C5.91652 41.2706 6.05714 42.0206 6.61964 42.3644C6.96277 42.5219 7.3659 42.6137 7.78777 42.6137C8.24902 42.6137 8.6859 42.5049 9.07027 42.3099L9.0534 42.3175C10.1275 41.9318 11.0911 41.2894 11.8603 40.4462L11.8659 40.4407L11.8753 40.4537ZM24.4321 31.8212C24.7447 31.0088 25.0884 30.04 25.4634 28.915C25.9634 27.415 26.1354 26.5406 25.979 26.2919C25.8228 26.0431 25.5259 26.0119 25.0884 26.1981C24.5833 26.4407 24.1372 26.7907 23.7816 27.2237L23.7758 27.2312C23.372 27.7443 23.0072 28.2872 22.6846 28.8549L22.6508 28.9187C22.2542 29.5735 21.9442 30.2768 21.7284 31.0112L21.7116 31.0749C21.2748 32.2819 21.0841 33.5639 21.1508 34.8457V34.8231C21.2134 36.0719 21.4133 36.7438 21.7508 36.8387C22.0883 36.9338 22.4791 36.4807 22.9228 35.4794C23.3521 34.7049 23.7346 33.805 24.0196 32.8619L24.0458 32.7607C24.2322 32.3181 24.3596 32.005 24.4284 31.8212H24.4321ZM34.8308 36.79C35.4769 36.5042 36.0348 36.0509 36.4465 35.4769C36.8584 34.9028 37.109 34.2291 37.1728 33.5257L37.1746 33.5107V33.4169L36.1433 34.7294L34.2703 36.7919C34.2559 36.803 34.2442 36.8171 34.2361 36.8333C34.228 36.8497 34.2236 36.8675 34.2233 36.8857C34.2233 36.9231 34.2421 36.9569 34.2683 36.9794C34.3283 37.0406 34.5158 36.9781 34.8308 36.7919V36.79ZM42.8916 35.0087C43.5919 34.8121 44.2088 34.3921 44.6488 33.8126C45.0887 33.2333 45.3276 32.5262 45.329 31.7987V31.7257V31.7294C45.3103 31.3544 45.2428 31.0019 45.1321 30.6681L45.1396 30.6962C44.4103 31.345 43.8121 32.1212 43.379 32.9969L43.3583 33.04C42.7946 34.1638 42.6372 34.8188 42.8858 35.005L42.8916 35.0087Z" fill="#CF6DFF"/>
</svg>
