<svg width="56" height="70" viewBox="0 0 56 70" fill="none" xmlns="http://www.w3.org/2000/svg">
<path d="M18.3669 58.5334L15.9069 66.8254H14.0229L11.4909 58.5334H13.1949L14.9949 65.4214L16.7469 58.5334H18.3669ZM24.0899 66.8254H22.7579L22.6739 65.9374C22.4419 66.2974 22.1659 66.5654 21.8459 66.7414C21.5339 66.9174 21.1619 67.0054 20.7299 67.0054C20.1619 67.0054 19.7219 66.8334 19.4099 66.4894C19.1059 66.1374 18.9539 65.6534 18.9539 65.0374V60.4774H20.4899V64.8454C20.4899 65.2054 20.5499 65.4614 20.6699 65.6134C20.7979 65.7654 20.9979 65.8414 21.2699 65.8414C21.7579 65.8414 22.1859 65.5414 22.5539 64.9414V60.4774H24.0899V66.8254ZM31.1477 63.5014C31.1477 63.5814 31.1357 63.7894 31.1117 64.1254H27.1277C27.1757 64.7414 27.3357 65.1814 27.6077 65.4454C27.8797 65.7094 28.2397 65.8414 28.6877 65.8414C28.9677 65.8414 29.2317 65.7974 29.4797 65.7094C29.7277 65.6134 29.9917 65.4694 30.2717 65.2774L30.9077 66.1534C30.2037 66.7214 29.4197 67.0054 28.5557 67.0054C27.5877 67.0054 26.8397 66.7094 26.3117 66.1174C25.7917 65.5254 25.5317 64.7174 25.5317 63.6934C25.5317 63.0454 25.6437 62.4654 25.8677 61.9534C26.0917 61.4334 26.4157 61.0294 26.8397 60.7414C27.2637 60.4454 27.7677 60.2974 28.3517 60.2974C29.2397 60.2974 29.9277 60.5814 30.4157 61.1494C30.9037 61.7094 31.1477 62.4934 31.1477 63.5014ZM29.6237 63.0574C29.6237 61.9454 29.2117 61.3894 28.3877 61.3894C28.0117 61.3894 27.7157 61.5294 27.4997 61.8094C27.2917 62.0814 27.1677 62.5214 27.1277 63.1294H29.6237V63.0574ZM32.9125 65.0614C33.1845 65.0614 33.4165 65.1574 33.6085 65.3494C33.8005 65.5334 33.8965 65.7614 33.8965 66.0334C33.8965 66.2974 33.8005 66.5254 33.6085 66.7174C33.4165 66.9094 33.1845 67.0054 32.9125 67.0054C32.6485 67.0054 32.4205 66.9094 32.2285 66.7174C32.0445 66.5254 31.9525 66.2974 31.9525 66.0334C31.9525 65.7614 32.0445 65.5334 32.2285 65.3494C32.4125 65.1574 32.6405 65.0614 32.9125 65.0614ZM36.8153 66.2614C36.8153 66.8854 36.7233 67.3934 36.5393 67.7854C36.3633 68.1854 36.1113 68.5054 35.7833 68.7454C35.4553 68.9854 35.0273 69.2134 34.4993 69.4294L34.0073 68.3134C34.3193 68.1694 34.5633 68.0254 34.7393 67.8814C34.9153 67.7454 35.0473 67.5574 35.1353 67.3174C35.2313 67.0774 35.2793 66.7574 35.2793 66.3574V60.4774H36.8153V66.2614ZM36.0353 57.2614C36.3233 57.2614 36.5553 57.3534 36.7313 57.5374C36.9153 57.7134 37.0073 57.9334 37.0073 58.1974C37.0073 58.4614 36.9153 58.6814 36.7313 58.8574C36.5553 59.0334 36.3233 59.1214 36.0353 59.1214C35.7553 59.1214 35.5233 59.0334 35.3393 58.8574C35.1633 58.6814 35.0753 58.4614 35.0753 58.1974C35.0753 57.9334 35.1633 57.7134 35.3393 57.5374C35.5233 57.3534 35.7553 57.2614 36.0353 57.2614ZM40.6703 60.2974C41.5263 60.2974 42.2783 60.5494 42.9263 61.0534L42.3263 61.9534C41.7823 61.6094 41.2503 61.4374 40.7303 61.4374C40.4263 61.4374 40.1903 61.4974 40.0223 61.6174C39.8543 61.7294 39.7703 61.8814 39.7703 62.0734C39.7703 62.2174 39.8063 62.3374 39.8783 62.4334C39.9503 62.5294 40.0783 62.6214 40.2623 62.7094C40.4543 62.7894 40.7343 62.8814 41.1023 62.9854C41.7903 63.1694 42.2983 63.4134 42.6263 63.7174C42.9623 64.0214 43.1303 64.4454 43.1303 64.9894C43.1303 65.6214 42.8743 66.1174 42.3623 66.4774C41.8503 66.8294 41.2143 67.0054 40.4543 67.0054C39.9343 67.0054 39.4583 66.9254 39.0263 66.7654C38.6023 66.6054 38.2343 66.3854 37.9223 66.1054L38.6903 65.2414C39.2423 65.6574 39.8183 65.8654 40.4183 65.8654C40.7623 65.8654 41.0343 65.7974 41.2343 65.6614C41.4423 65.5254 41.5463 65.3374 41.5463 65.0974C41.5463 64.9134 41.5063 64.7694 41.4263 64.6654C41.3543 64.5534 41.2183 64.4574 41.0183 64.3774C40.8263 64.2894 40.5223 64.1854 40.1063 64.0654C39.4583 63.8894 38.9823 63.6454 38.6783 63.3334C38.3743 63.0134 38.2223 62.6174 38.2223 62.1454C38.2223 61.7934 38.3223 61.4774 38.5223 61.1974C38.7303 60.9174 39.0183 60.6974 39.3863 60.5374C39.7623 60.3774 40.1903 60.2974 40.6703 60.2974Z" fill="#CF6DFF"/>
<path d="M11.085 0.386719L21.1376 0.389776L27.7086 11.2974L34.2566 0.391305L44.3006 0.388757L27.759 29.0817L11.085 0.386719Z" fill="#CF6DFF" fill-opacity="0.61"/>
<path d="M0.121338 0.463064L11.0764 0.388672L27.7494 29.0832L44.292 0.3902L55.2658 0.40192L27.7473 47.6277L0.121338 0.463064Z" fill="#CF6DFF"/>
</svg>
