<svg width="44" height="66" viewBox="0 0 44 66" fill="none" xmlns="http://www.w3.org/2000/svg">
<path d="M15.6758 56.3537C16.1798 56.3537 16.6198 56.4257 16.9958 56.5697C17.3718 56.7137 17.7398 56.9337 18.0998 57.2297L17.2958 58.1657C16.8078 57.7737 16.2958 57.5777 15.7598 57.5777C15.1438 57.5777 14.6478 57.8257 14.2718 58.3217C13.9038 58.8177 13.7198 59.5977 13.7198 60.6617C13.7198 61.7017 13.9038 62.4737 14.2718 62.9777C14.6398 63.4817 15.1358 63.7337 15.7598 63.7337C16.0878 63.7337 16.3798 63.6777 16.6358 63.5657C16.8918 63.4457 17.1638 63.2777 17.4518 63.0617L18.1958 63.9977C17.9158 64.2857 17.5598 64.5257 17.1278 64.7177C16.7038 64.9097 16.2278 65.0057 15.6998 65.0057C14.9798 65.0057 14.3438 64.8377 13.7918 64.5017C13.2398 64.1657 12.8118 63.6737 12.5078 63.0257C12.2038 62.3697 12.0518 61.5817 12.0518 60.6617C12.0518 59.7577 12.2078 58.9817 12.5198 58.3337C12.8398 57.6857 13.2718 57.1937 13.8158 56.8577C14.3678 56.5217 14.9878 56.3537 15.6758 56.3537ZM21.5989 56.3537C22.1829 56.3537 22.6909 56.4377 23.1229 56.6057C23.5549 56.7737 23.9589 57.0297 24.3349 57.3737L23.5549 58.2737C23.2589 58.0257 22.9589 57.8457 22.6549 57.7337C22.3589 57.6217 22.0389 57.5657 21.6949 57.5657C21.3109 57.5657 20.9989 57.6537 20.7589 57.8297C20.5269 57.9977 20.4109 58.2377 20.4109 58.5497C20.4109 58.7577 20.4549 58.9297 20.5429 59.0657C20.6389 59.2017 20.8069 59.3297 21.0469 59.4497C21.2869 59.5697 21.6429 59.7017 22.1149 59.8457C22.9309 60.1017 23.5429 60.4217 23.9509 60.8057C24.3669 61.1817 24.5749 61.7337 24.5749 62.4617C24.5749 62.9577 24.4469 63.3977 24.1909 63.7817C23.9429 64.1657 23.5829 64.4657 23.1109 64.6817C22.6389 64.8977 22.0789 65.0057 21.4309 65.0057C20.7989 65.0057 20.2309 64.9057 19.7269 64.7057C19.2309 64.4977 18.8029 64.2177 18.4429 63.8657L19.2589 62.9537C19.5789 63.2257 19.9109 63.4337 20.2549 63.5777C20.5989 63.7137 20.9789 63.7817 21.3949 63.7817C21.8509 63.7817 22.2189 63.6737 22.4989 63.4577C22.7789 63.2417 22.9189 62.9377 22.9189 62.5457C22.9189 62.3057 22.8709 62.1097 22.7749 61.9577C22.6789 61.7977 22.5149 61.6577 22.2829 61.5377C22.0509 61.4097 21.7149 61.2777 21.2749 61.1417C20.3949 60.8697 19.7589 60.5417 19.3669 60.1577C18.9749 59.7737 18.7789 59.2697 18.7789 58.6457C18.7789 58.1897 18.8989 57.7897 19.1389 57.4457C19.3789 57.1017 19.7109 56.8337 20.1349 56.6417C20.5669 56.4497 21.0549 56.3537 21.5989 56.3537ZM28.1849 56.3537C28.7689 56.3537 29.2769 56.4377 29.7089 56.6057C30.1409 56.7737 30.5449 57.0297 30.9209 57.3737L30.1409 58.2737C29.8449 58.0257 29.5449 57.8457 29.2409 57.7337C28.9449 57.6217 28.6249 57.5657 28.2809 57.5657C27.8969 57.5657 27.5849 57.6537 27.3449 57.8297C27.1129 57.9977 26.9969 58.2377 26.9969 58.5497C26.9969 58.7577 27.0409 58.9297 27.1289 59.0657C27.2249 59.2017 27.3929 59.3297 27.6329 59.4497C27.8729 59.5697 28.2289 59.7017 28.7009 59.8457C29.5169 60.1017 30.1289 60.4217 30.5369 60.8057C30.9529 61.1817 31.1609 61.7337 31.1609 62.4617C31.1609 62.9577 31.0329 63.3977 30.7769 63.7817C30.5289 64.1657 30.1689 64.4657 29.6969 64.6817C29.2249 64.8977 28.6649 65.0057 28.0169 65.0057C27.3849 65.0057 26.8169 64.9057 26.3129 64.7057C25.8169 64.4977 25.3889 64.2177 25.0289 63.8657L25.8449 62.9537C26.1649 63.2257 26.4969 63.4337 26.8409 63.5777C27.1849 63.7137 27.5649 63.7817 27.9809 63.7817C28.4369 63.7817 28.8049 63.6737 29.0849 63.4577C29.3649 63.2417 29.5049 62.9377 29.5049 62.5457C29.5049 62.3057 29.4569 62.1097 29.3609 61.9577C29.2649 61.7977 29.1009 61.6577 28.8689 61.5377C28.6369 61.4097 28.3009 61.2777 27.8609 61.1417C26.9809 60.8697 26.3449 60.5417 25.9529 60.1577C25.5609 59.7737 25.3649 59.2697 25.3649 58.6457C25.3649 58.1897 25.4849 57.7897 25.7249 57.4457C25.9649 57.1017 26.2969 56.8337 26.7209 56.6417C27.1529 56.4497 27.6409 56.3537 28.1849 56.3537Z" fill="#CF6DFF"/>
<path d="M1.80811 1.86475L6.25312 44.5897L21.8081 49.3648L37.3631 44.5897L41.8082 1.86475H1.80811Z" stroke="#CF6DFF" stroke-width="3" stroke-linecap="round" stroke-linejoin="round"/>
<path d="M9.30811 11.8647H33.0581L30.5582 36.8648L21.8081 39.3648L13.0581 36.8648L12.4331 30.6147M31.8081 23.1147H10.5581" stroke="#CF6DFF" stroke-width="3" stroke-linecap="round" stroke-linejoin="round"/>
</svg>
