<svg width="59" height="63" viewBox="0 0 59 63" fill="none" xmlns="http://www.w3.org/2000/svg">
<path d="M3.33279 58.5893C3.33279 59.4773 3.12079 60.1453 2.69679 60.5933C2.28079 61.0493 1.68079 61.4053 0.896791 61.6613L0.476791 60.5213C0.828791 60.3853 1.09279 60.2293 1.26879 60.0533C1.45279 59.8853 1.57679 59.6853 1.64079 59.4533C1.70479 59.2133 1.73679 58.9053 1.73679 58.5293V51.5093H3.33279V58.5893ZM9.86707 58.1213C9.86707 58.3693 9.90307 58.5533 9.97507 58.6733C10.0551 58.7853 10.1791 58.8733 10.3471 58.9373L10.0231 59.9573C9.66307 59.9253 9.36707 59.8373 9.13507 59.6933C8.91107 59.5493 8.73907 59.3293 8.61907 59.0333C8.40307 59.3533 8.13107 59.5933 7.80307 59.7533C7.48307 59.9053 7.12307 59.9813 6.72307 59.9813C6.09107 59.9813 5.59107 59.8013 5.22307 59.4413C4.85507 59.0813 4.67107 58.6093 4.67107 58.0253C4.67107 57.3373 4.91907 56.8133 5.41507 56.4533C5.91907 56.0853 6.63507 55.9013 7.56307 55.9013H8.35507V55.5413C8.35507 55.1333 8.25907 54.8493 8.06707 54.6893C7.88307 54.5213 7.58307 54.4373 7.16707 54.4373C6.70307 54.4373 6.14307 54.5493 5.48707 54.7733L5.12707 53.7293C5.91907 53.4253 6.68707 53.2733 7.43107 53.2733C9.05507 53.2733 9.86707 54.0013 9.86707 55.4573V58.1213ZM7.13107 58.8653C7.65107 58.8653 8.05907 58.6053 8.35507 58.0853V56.8013H7.71907C6.72707 56.8013 6.23107 57.1693 6.23107 57.9053C6.23107 58.2093 6.30707 58.4453 6.45907 58.6133C6.61107 58.7813 6.83507 58.8653 7.13107 58.8653ZM16.6501 53.4533L14.5861 59.8013H12.7501L10.6501 53.4533H12.3181L13.6741 58.5653L15.0661 53.4533H16.6501ZM22.0663 58.1213C22.0663 58.3693 22.1023 58.5533 22.1743 58.6733C22.2543 58.7853 22.3783 58.8733 22.5463 58.9373L22.2223 59.9573C21.8623 59.9253 21.5663 59.8373 21.3343 59.6933C21.1103 59.5493 20.9383 59.3293 20.8183 59.0333C20.6023 59.3533 20.3303 59.5933 20.0023 59.7533C19.6823 59.9053 19.3223 59.9813 18.9223 59.9813C18.2903 59.9813 17.7903 59.8013 17.4223 59.4413C17.0543 59.0813 16.8703 58.6093 16.8703 58.0253C16.8703 57.3373 17.1183 56.8133 17.6143 56.4533C18.1183 56.0853 18.8343 55.9013 19.7623 55.9013H20.5543V55.5413C20.5543 55.1333 20.4583 54.8493 20.2663 54.6893C20.0823 54.5213 19.7823 54.4373 19.3663 54.4373C18.9023 54.4373 18.3423 54.5493 17.6863 54.7733L17.3263 53.7293C18.1183 53.4253 18.8863 53.2733 19.6303 53.2733C21.2543 53.2733 22.0663 54.0013 22.0663 55.4573V58.1213ZM19.3303 58.8653C19.8503 58.8653 20.2583 58.6053 20.5543 58.0853V56.8013H19.9183C18.9263 56.8013 18.4303 57.1693 18.4303 57.9053C18.4303 58.2093 18.5063 58.4453 18.6583 58.6133C18.8103 58.7813 19.0343 58.8653 19.3303 58.8653ZM26.3611 51.3293C26.9451 51.3293 27.4531 51.4133 27.8851 51.5813C28.3171 51.7493 28.7211 52.0053 29.0971 52.3493L28.3171 53.2493C28.0211 53.0013 27.7211 52.8213 27.4171 52.7093C27.1211 52.5973 26.8011 52.5413 26.4571 52.5413C26.0731 52.5413 25.7611 52.6293 25.5211 52.8053C25.2891 52.9733 25.1731 53.2133 25.1731 53.5253C25.1731 53.7333 25.2171 53.9053 25.3051 54.0413C25.4011 54.1773 25.5691 54.3053 25.8091 54.4253C26.0491 54.5453 26.4051 54.6773 26.8771 54.8213C27.6931 55.0773 28.3051 55.3973 28.7131 55.7813C29.1291 56.1573 29.3371 56.7093 29.3371 57.4373C29.3371 57.9333 29.2091 58.3733 28.9531 58.7573C28.7051 59.1413 28.3451 59.4413 27.8731 59.6573C27.4011 59.8733 26.8411 59.9813 26.1931 59.9813C25.5611 59.9813 24.9931 59.8813 24.4891 59.6813C23.9931 59.4733 23.5651 59.1933 23.2051 58.8413L24.0211 57.9293C24.3411 58.2013 24.6731 58.4093 25.0171 58.5533C25.3611 58.6893 25.7411 58.7573 26.1571 58.7573C26.6131 58.7573 26.9811 58.6493 27.2611 58.4333C27.5411 58.2173 27.6811 57.9133 27.6811 57.5213C27.6811 57.2813 27.6331 57.0853 27.5371 56.9333C27.4411 56.7733 27.2771 56.6333 27.0451 56.5133C26.8131 56.3853 26.4771 56.2533 26.0371 56.1173C25.1571 55.8453 24.5211 55.5173 24.1291 55.1333C23.7371 54.7493 23.5411 54.2453 23.5411 53.6213C23.5411 53.1653 23.6611 52.7653 23.9011 52.4213C24.1411 52.0773 24.4731 51.8093 24.8971 51.6173C25.3291 51.4253 25.8171 51.3293 26.3611 51.3293ZM33.1959 53.2733C33.6119 53.2733 33.9839 53.3333 34.3119 53.4533C34.6479 53.5733 34.9639 53.7613 35.2599 54.0173L34.5759 54.9413C34.3599 54.7813 34.1519 54.6653 33.9519 54.5933C33.7519 54.5213 33.5319 54.4853 33.2919 54.4853C32.3399 54.4853 31.8639 55.2093 31.8639 56.6573C31.8639 57.3933 31.9879 57.9253 32.2359 58.2533C32.4839 58.5733 32.8359 58.7333 33.2919 58.7333C33.5159 58.7333 33.7199 58.6973 33.9039 58.6253C34.0959 58.5533 34.3199 58.4373 34.5759 58.2773L35.2599 59.2493C34.6599 59.7373 33.9759 59.9813 33.2079 59.9813C32.5999 59.9813 32.0719 59.8493 31.6239 59.5853C31.1759 59.3133 30.8319 58.9293 30.5919 58.4333C30.3519 57.9373 30.2319 57.3533 30.2319 56.6813C30.2319 56.0093 30.3519 55.4173 30.5919 54.9053C30.8319 54.3853 31.1759 53.9853 31.6239 53.7053C32.0719 53.4173 32.5959 53.2733 33.1959 53.2733ZM39.5024 53.2853C39.7344 53.2853 39.9464 53.3133 40.1384 53.3693L39.8744 54.8573C39.6824 54.8093 39.4944 54.7853 39.3104 54.7853C38.9344 54.7853 38.6384 54.9213 38.4224 55.1933C38.2064 55.4573 38.0344 55.8653 37.9064 56.4173V59.8013H36.3704V53.4533H37.7024L37.8464 54.7013C37.9984 54.2453 38.2184 53.8973 38.5064 53.6573C38.7944 53.4093 39.1264 53.2853 39.5024 53.2853ZM42.629 53.4533V59.8013H41.093V53.4533H42.629ZM41.849 50.2373C42.137 50.2373 42.369 50.3293 42.545 50.5133C42.729 50.6893 42.821 50.9093 42.821 51.1733C42.821 51.4373 42.729 51.6573 42.545 51.8333C42.369 52.0093 42.137 52.0973 41.849 52.0973C41.569 52.0973 41.337 52.0093 41.153 51.8333C40.977 51.6573 40.889 51.4373 40.889 51.1733C40.889 50.9093 40.977 50.6893 41.153 50.5133C41.337 50.3293 41.569 50.2373 41.849 50.2373ZM47.7678 53.2733C48.5678 53.2733 49.1598 53.5653 49.5438 54.1493C49.9278 54.7333 50.1198 55.5533 50.1198 56.6093C50.1198 57.2653 50.0198 57.8493 49.8198 58.3613C49.6278 58.8653 49.3398 59.2613 48.9558 59.5493C48.5798 59.8373 48.1318 59.9813 47.6118 59.9813C46.9398 59.9813 46.4078 59.7493 46.0158 59.2853V62.2493L44.4798 62.4173V53.4533H45.8238L45.9078 54.2333C46.1558 53.9133 46.4398 53.6733 46.7598 53.5133C47.0798 53.3533 47.4158 53.2733 47.7678 53.2733ZM47.1798 58.8053C48.0678 58.8053 48.5118 58.0773 48.5118 56.6213C48.5118 55.8453 48.4118 55.2853 48.2118 54.9413C48.0118 54.5973 47.7118 54.4253 47.3118 54.4253C47.0558 54.4253 46.8158 54.5053 46.5918 54.6653C46.3678 54.8173 46.1758 55.0253 46.0158 55.2893V58.1453C46.3118 58.5853 46.6998 58.8053 47.1798 58.8053ZM55.2642 59.5013C55.0402 59.6613 54.7882 59.7813 54.5082 59.8613C54.2362 59.9413 53.9562 59.9813 53.6682 59.9813C53.0442 59.9733 52.5682 59.7973 52.2402 59.4533C51.9202 59.1013 51.7602 58.5853 51.7602 57.9053V54.5573H50.7642V53.4533H51.7602V52.0493L53.2962 51.8693V53.4533H54.7722L54.6162 54.5573H53.2962V57.8693C53.2962 58.1813 53.3482 58.4053 53.4522 58.5413C53.5642 58.6773 53.7362 58.7453 53.9682 58.7453C54.2002 58.7453 54.4522 58.6693 54.7242 58.5173L55.2642 59.5013Z" fill="#CF6DFF"/>
<path d="M0.128418 31.386L6.86142 27.6246C8.16057 29.7505 9.34216 31.5494 12.1766 31.5494C14.8936 31.5494 16.6068 30.5684 16.6068 26.7525V0.801289H24.8752V26.8603C24.8752 34.7654 19.8553 38.3639 12.5311 38.3639C5.91659 38.3639 2.07751 35.2023 0.128418 31.386ZM29.3663 30.568L36.0986 26.9701C37.8711 29.6417 40.1745 31.6043 44.2493 31.6043C47.6756 31.6043 49.8601 30.023 49.8601 27.8422C49.8601 25.2255 47.6157 24.2985 43.8359 22.7724L41.7693 21.9539C35.8036 19.6103 31.8467 16.6661 31.8467 10.4511C31.8467 4.72643 36.5715 0.364746 43.9543 0.364746C49.2109 0.364746 52.9909 2.05509 55.7073 6.47103L49.2694 10.2877C47.8516 7.94347 46.3167 7.01662 43.9541 7.01662C41.5325 7.01662 39.9968 8.43416 39.9968 10.2877C39.9968 12.5773 41.5325 13.5047 45.0758 14.9222L47.1428 15.7398C54.1715 18.5205 58.1284 21.3552 58.1284 27.7333C58.1284 34.6034 52.2814 38.3647 44.4262 38.3647C36.7486 38.3647 31.7876 34.9843 29.3663 30.568Z" fill="#CF6DFF"/>
</svg>
