<svg width="58" height="68" viewBox="0 0 58 68" fill="none" xmlns="http://www.w3.org/2000/svg">
<path d="M10.3082 58.5334L8.78415 66.8254H6.72015L5.46015 60.2134L4.16415 66.8254H2.16015L0.66015 58.5334H2.23215L3.28815 65.5654L4.64415 58.5334H6.32415L7.65615 65.5654L8.80815 58.5334H10.3082ZM13.8979 60.2974C14.8339 60.2974 15.5619 60.5974 16.0819 61.1974C16.6099 61.7894 16.8739 62.6054 16.8739 63.6454C16.8739 64.3094 16.7539 64.8974 16.5139 65.4094C16.2739 65.9134 15.9299 66.3054 15.4819 66.5854C15.0339 66.8654 14.5019 67.0054 13.8859 67.0054C12.9499 67.0054 12.2179 66.7094 11.6899 66.1174C11.1619 65.5174 10.8979 64.6934 10.8979 63.6454C10.8979 62.9814 11.0179 62.3974 11.2579 61.8934C11.4979 61.3894 11.8419 60.9974 12.2899 60.7174C12.7459 60.4374 13.2819 60.2974 13.8979 60.2974ZM13.8979 61.4614C12.9779 61.4614 12.5179 62.1894 12.5179 63.6454C12.5179 64.3974 12.6299 64.9534 12.8539 65.3134C13.0859 65.6654 13.4299 65.8414 13.8859 65.8414C14.3419 65.8414 14.6819 65.6614 14.9059 65.3014C15.1379 64.9414 15.2539 64.3894 15.2539 63.6454C15.2539 62.9014 15.1379 62.3534 14.9059 62.0014C14.6819 61.6414 14.3459 61.4614 13.8979 61.4614ZM21.4457 60.3094C21.6777 60.3094 21.8897 60.3374 22.0817 60.3934L21.8177 61.8814C21.6257 61.8334 21.4377 61.8094 21.2537 61.8094C20.8777 61.8094 20.5817 61.9454 20.3657 62.2174C20.1497 62.4814 19.9777 62.8894 19.8497 63.4414V66.8254H18.3137V60.4774H19.6457L19.7897 61.7254C19.9417 61.2694 20.1617 60.9214 20.4497 60.6814C20.7377 60.4334 21.0697 60.3094 21.4457 60.3094ZM28.0131 57.9334V66.8254H26.6571L26.5491 66.0214C26.3491 66.3254 26.0931 66.5654 25.7811 66.7414C25.4771 66.9174 25.1291 67.0054 24.7371 67.0054C23.9611 67.0054 23.3651 66.7054 22.9491 66.1054C22.5331 65.5054 22.3251 64.6894 22.3251 63.6574C22.3251 63.0094 22.4291 62.4334 22.6371 61.9294C22.8451 61.4174 23.1411 61.0174 23.5251 60.7294C23.9171 60.4414 24.3691 60.2974 24.8811 60.2974C25.4891 60.2974 26.0211 60.5254 26.4771 60.9814V57.7654L28.0131 57.9334ZM25.1691 65.8414C25.4411 65.8414 25.6811 65.7774 25.8891 65.6494C26.0971 65.5134 26.2931 65.3054 26.4771 65.0254V62.1214C26.2931 61.8974 26.1051 61.7294 25.9131 61.6174C25.7291 61.5054 25.5131 61.4494 25.2651 61.4494C24.8571 61.4494 24.5331 61.6334 24.2931 62.0014C24.0611 62.3614 23.9451 62.9094 23.9451 63.6454C23.9451 64.4294 24.0491 64.9934 24.2571 65.3374C24.4651 65.6734 24.7691 65.8414 25.1691 65.8414ZM32.3527 58.5334C33.4167 58.5334 34.2407 58.7534 34.8247 59.1934C35.4167 59.6334 35.7127 60.2934 35.7127 61.1734C35.7127 62.0934 35.4167 62.7854 34.8247 63.2494C34.2327 63.7054 33.4447 63.9334 32.4607 63.9334H31.4887V66.8254H29.9047V58.5334H32.3527ZM32.3407 62.7454C32.9087 62.7454 33.3367 62.6294 33.6247 62.3974C33.9127 62.1574 34.0567 61.7494 34.0567 61.1734C34.0567 60.1894 33.4847 59.6974 32.3407 59.6974H31.4887V62.7454H32.3407ZM39.8442 60.3094C40.0762 60.3094 40.2882 60.3374 40.4802 60.3934L40.2162 61.8814C40.0242 61.8334 39.8362 61.8094 39.6522 61.8094C39.2762 61.8094 38.9802 61.9454 38.7642 62.2174C38.5482 62.4814 38.3762 62.8894 38.2482 63.4414V66.8254H36.7122V60.4774H38.0442L38.1882 61.7254C38.3402 61.2694 38.5602 60.9214 38.8482 60.6814C39.1362 60.4334 39.4682 60.3094 39.8442 60.3094ZM46.2796 63.5014C46.2796 63.5814 46.2676 63.7894 46.2436 64.1254H42.2596C42.3076 64.7414 42.4676 65.1814 42.7396 65.4454C43.0116 65.7094 43.3716 65.8414 43.8196 65.8414C44.0996 65.8414 44.3636 65.7974 44.6116 65.7094C44.8596 65.6134 45.1236 65.4694 45.4036 65.2774L46.0396 66.1534C45.3356 66.7214 44.5516 67.0054 43.6876 67.0054C42.7196 67.0054 41.9716 66.7094 41.4436 66.1174C40.9236 65.5254 40.6636 64.7174 40.6636 63.6934C40.6636 63.0454 40.7756 62.4654 40.9996 61.9534C41.2236 61.4334 41.5476 61.0294 41.9716 60.7414C42.3956 60.4454 42.8996 60.2974 43.4836 60.2974C44.3716 60.2974 45.0596 60.5814 45.5476 61.1494C46.0356 61.7094 46.2796 62.4934 46.2796 63.5014ZM44.7556 63.0574C44.7556 61.9454 44.3436 61.3894 43.5196 61.3894C43.1436 61.3894 42.8476 61.5294 42.6316 61.8094C42.4236 62.0814 42.2996 62.5214 42.2596 63.1294H44.7556V63.0574ZM49.6615 60.2974C50.5175 60.2974 51.2695 60.5494 51.9175 61.0534L51.3175 61.9534C50.7735 61.6094 50.2415 61.4374 49.7215 61.4374C49.4175 61.4374 49.1815 61.4974 49.0135 61.6174C48.8455 61.7294 48.7615 61.8814 48.7615 62.0734C48.7615 62.2174 48.7975 62.3374 48.8695 62.4334C48.9415 62.5294 49.0695 62.6214 49.2535 62.7094C49.4455 62.7894 49.7255 62.8814 50.0935 62.9854C50.7815 63.1694 51.2895 63.4134 51.6175 63.7174C51.9535 64.0214 52.1215 64.4454 52.1215 64.9894C52.1215 65.6214 51.8655 66.1174 51.3535 66.4774C50.8415 66.8294 50.2055 67.0054 49.4455 67.0054C48.9255 67.0054 48.4495 66.9254 48.0175 66.7654C47.5935 66.6054 47.2255 66.3854 46.9135 66.1054L47.6815 65.2414C48.2335 65.6574 48.8095 65.8654 49.4095 65.8654C49.7535 65.8654 50.0255 65.7974 50.2255 65.6614C50.4335 65.5254 50.5375 65.3374 50.5375 65.0974C50.5375 64.9134 50.4975 64.7694 50.4175 64.6654C50.3455 64.5534 50.2095 64.4574 50.0095 64.3774C49.8175 64.2894 49.5135 64.1854 49.0975 64.0654C48.4495 63.8894 47.9735 63.6454 47.6695 63.3334C47.3655 63.0134 47.2135 62.6174 47.2135 62.1454C47.2135 61.7934 47.3135 61.4774 47.5135 61.1974C47.7215 60.9174 48.0095 60.6974 48.3775 60.5374C48.7535 60.3774 49.1815 60.2974 49.6615 60.2974ZM55.2748 60.2974C56.1308 60.2974 56.8828 60.5494 57.5308 61.0534L56.9308 61.9534C56.3868 61.6094 55.8548 61.4374 55.3348 61.4374C55.0308 61.4374 54.7948 61.4974 54.6268 61.6174C54.4588 61.7294 54.3748 61.8814 54.3748 62.0734C54.3748 62.2174 54.4108 62.3374 54.4828 62.4334C54.5548 62.5294 54.6828 62.6214 54.8668 62.7094C55.0588 62.7894 55.3388 62.8814 55.7068 62.9854C56.3948 63.1694 56.9028 63.4134 57.2308 63.7174C57.5668 64.0214 57.7348 64.4454 57.7348 64.9894C57.7348 65.6214 57.4788 66.1174 56.9668 66.4774C56.4548 66.8294 55.8188 67.0054 55.0588 67.0054C54.5388 67.0054 54.0628 66.9254 53.6308 66.7654C53.2068 66.6054 52.8388 66.3854 52.5268 66.1054L53.2948 65.2414C53.8468 65.6574 54.4228 65.8654 55.0228 65.8654C55.3668 65.8654 55.6388 65.7974 55.8388 65.6614C56.0468 65.5254 56.1508 65.3374 56.1508 65.0974C56.1508 64.9134 56.1108 64.7694 56.0308 64.6654C55.9588 64.5534 55.8228 64.4574 55.6228 64.3774C55.4308 64.2894 55.1268 64.1854 54.7108 64.0654C54.0628 63.8894 53.5868 63.6454 53.2828 63.3334C52.9788 63.0134 52.8268 62.6174 52.8268 62.1454C52.8268 61.7934 52.9268 61.4774 53.1268 61.1974C53.3348 60.9174 53.6228 60.6974 53.9908 60.5374C54.3668 60.3774 54.7948 60.2974 55.2748 60.2974Z" fill="#CF6DFF"/>
<path fill-rule="evenodd" clip-rule="evenodd" d="M29.0809 0.390422C16.2239 0.161666 5.48114 10.5615 5.47778 23.1727C5.47394 36.1467 15.7217 46.4977 28.5585 46.4786C41.2758 46.4599 51.5697 36.1477 51.5697 23.4273C51.5692 10.9137 41.3224 0.608171 29.0809 0.390422ZM28.5297 45.3219C16.3713 45.3247 6.59301 35.4973 6.59349 23.2756C6.59397 11.3688 16.5239 1.51027 28.5206 1.50597C40.73 1.50214 50.4578 11.3903 50.454 23.8011C50.4501 35.5179 40.465 45.3195 28.5297 45.3219ZM40.2412 16.9202C39.764 16.1363 39.1774 15.3759 38.9076 14.5211C38.6003 13.5487 38.3454 12.4418 38.5082 11.4669C38.7847 9.81393 40.0564 8.99319 41.7785 8.83622C32.3574 0.12003 17.5527 3.23982 12.0976 12.7102C14.1975 12.6131 16.2023 12.4863 18.2085 12.4595C18.5883 12.4542 19.2167 12.7739 19.306 13.0706C19.5057 13.7334 18.9469 13.9646 18.3525 14.01C17.728 14.0588 17.1024 14.1053 16.377 14.1603L23.547 35.4538C23.7193 35.1729 23.7904 35.0939 23.8216 35.0015C25.1476 31.0509 26.4812 27.1027 27.7736 23.1407C27.8917 22.7793 27.8331 22.3008 27.7035 21.9294C27.0199 19.962 26.2009 18.0372 25.6012 16.0459C25.1908 14.6824 24.6469 13.8004 23.0304 13.9583C22.7549 13.9851 22.4193 13.3946 22.1106 13.0893C22.4836 12.8677 22.8538 12.4595 23.2301 12.4537C26.522 12.4035 29.8145 12.4044 33.1063 12.4566C33.4837 12.4628 33.8538 12.882 34.2273 13.1094C33.9004 13.407 33.619 13.8531 33.2369 13.9679C32.6243 14.1522 31.945 14.1172 31.2119 14.1823L38.3905 35.471C39.4784 31.8702 40.4904 28.5633 41.4736 25.2488C42.3522 22.2902 41.8289 19.5265 40.2412 16.9202ZM23.0597 41.9082C23.0155 42.036 23.0131 42.1777 22.9791 42.3902C27.0396 43.5119 31.0204 43.431 35.0962 42.0623L28.8706 25.0636C26.8778 30.837 24.9671 36.3721 23.0597 41.9082ZM19.9224 41.1397L10.5426 15.4902C6.3112 23.7298 9.53013 36.3013 19.9224 41.1397ZM46.0636 14.6255C45.934 16.0583 46.0243 17.6534 45.6119 19.1058C44.6407 22.5286 43.4535 25.8924 42.3104 29.2654C41.0679 32.9312 39.7756 36.5808 38.5048 40.2376C44.4755 36.7095 47.7564 31.5022 48.2787 24.6577C48.5764 20.7622 47.2283 15.3677 46.0636 14.6255Z" fill="#CF6DFF"/>
</svg>
