<svg width="44" height="67" viewBox="0 0 44 67" fill="none" xmlns="http://www.w3.org/2000/svg">
<path d="M12.6664 66.8496V63.1416H9.71438V66.8496H8.13038V58.5576H9.71438V61.8816H12.6664V58.5576H14.2624V66.8496H12.6664ZM21.5209 58.5576L21.3529 59.8176H19.1929V66.8496H17.5969V59.8176H15.3649V58.5576H21.5209ZM30.1818 66.8496H28.6338L28.4178 63.3816C28.3458 62.1416 28.3098 61.1576 28.3098 60.4296V59.9976L26.7978 65.9496H25.2978L23.6898 59.9856C23.7058 60.5136 23.7138 60.9136 23.7138 61.1856C23.7138 61.9136 23.6898 62.6616 23.6418 63.4296L23.4378 66.8496H21.9018L22.5618 58.5576H24.6018L26.0778 64.3656L27.4698 58.5576H29.5338L30.1818 66.8496ZM33.2925 58.5576V65.5536H36.6165L36.4365 66.8496H31.7085V58.5576H33.2925Z" fill="#CF6DFF"/>
<path d="M2.26855 1.84058L6.71357 44.5655L22.2685 49.3406L37.8235 44.5655L42.2686 1.84058H2.26855Z" stroke="#CF6DFF" stroke-width="3" stroke-linecap="round" stroke-linejoin="round"/>
<path d="M34.768 11.8406H11.0181L12.268 23.0906H32.2681L31.018 36.8406L22.2681 39.3407L13.5181 36.8406L12.8931 30.5906" stroke="#CF6DFF" stroke-width="3" stroke-linecap="round" stroke-linejoin="round"/>
</svg>
