<svg width="28" height="21" viewBox="0 0 28 21" fill="none" xmlns="http://www.w3.org/2000/svg">
<path d="M3 16V3C3 2.46957 3.21071 1.96086 3.58579 1.58579C3.96086 1.21071 4.46957 1 5 1H23C23.5304 1 24.0391 1.21071 24.4142 1.58579C24.7893 1.96086 25 2.46957 25 3V16" stroke="#CF6DFF" stroke-width="1.5" stroke-linecap="round" stroke-linejoin="round"/>
<path d="M1 16H27V18C27 18.5304 26.7893 19.0391 26.4142 19.4142C26.0391 19.7893 25.5304 20 25 20H3C2.46957 20 1.96086 19.7893 1.58579 19.4142C1.21071 19.0391 1 18.5304 1 18V16Z" stroke="#CF6DFF" stroke-width="1.5" stroke-linecap="round" stroke-linejoin="round"/>
<path d="M16 5H12" stroke="#CF6DFF" stroke-width="1.5" stroke-linecap="round" stroke-linejoin="round"/>
</svg>
