<svg width="25" height="24" viewBox="0 0 25 24" fill="none" xmlns="http://www.w3.org/2000/svg">
<path d="M12.5603 0H24.293V2.93317L22.8264 4.39976L24.293 5.86635V8.79952L22.8264 10.2661L24.293 11.7327V14.6659L22.8264 16.1325L24.293 17.599V20.5322L12.5603 21.9988L0.827637 20.5322V17.599L2.29422 16.1325L0.827637 14.6659V11.7327L12.5603 0Z" fill="#EEEEEE"/>
<path d="M11.0937 2.9332H24.293V5.86637H11.0937V2.9332ZM11.0937 8.79954H24.293V11.7327H12.5603L11.0937 8.79954ZM0.827637 14.6659H24.293V17.5991H0.827637V14.6659ZM0.827637 20.5322H24.293V23.4654H0.827637V20.5322Z" fill="#D80027"/>
<path d="M0.827637 0H12.5603V11.7327H0.827637V0Z" fill="#0052B4"/>
<path d="M9.39784 11.1369L12.0102 9.25782H8.80204L11.4144 11.1369L10.4061 8.06622L9.39784 11.1369ZM5.68554 11.1369L8.2979 9.25782H5.08974L7.7021 11.1369L6.69382 8.06622L5.68554 11.1369ZM1.97324 11.1369L4.5856 9.25782H1.37744L3.9898 11.1369L2.98152 8.06622L1.97324 11.1369ZM9.39784 7.42459L12.0102 5.54552H8.80204L11.4144 7.42459L10.4061 4.35392L9.39784 7.42459ZM5.68554 7.42459L8.2979 5.54552H5.08974L7.7021 7.42459L6.69382 4.35392L5.68554 7.42459ZM1.97324 7.42459L4.5856 5.54552H1.37744L3.9898 7.42459L2.98152 4.35392L1.97324 7.42459ZM9.39784 3.66646L12.0102 1.7874H8.80204L11.4144 3.66646L10.4061 0.595795L9.39784 3.66646ZM5.68554 3.66646L8.2979 1.7874H5.08974L7.7021 3.66646L6.69382 0.595795L5.68554 3.66646ZM1.97324 3.66646L4.5856 1.7874H1.37744L3.9898 3.66646L2.98152 0.595795L1.97324 3.66646Z" fill="#EEEEEE"/>
</svg>
