<svg width="27" height="27" viewBox="0 0 27 27" fill="none" xmlns="http://www.w3.org/2000/svg">
<path d="M13.4167 18.7833C14.8401 18.7833 16.2051 18.2179 17.2116 17.2115C18.218 16.205 18.7834 14.84 18.7834 13.4167C18.7834 11.9933 18.218 10.6283 17.2116 9.62185C16.2051 8.6154 14.8401 8.04999 13.4167 8.04999V18.7833Z" fill="#C6C6C6"/>
<path fill-rule="evenodd" clip-rule="evenodd" d="M13.4167 0C6.00664 0 0 6.00664 0 13.4167C0 20.8267 6.00664 26.8333 13.4167 26.8333C20.8267 26.8333 26.8333 20.8267 26.8333 13.4167C26.8333 6.00664 20.8267 0 13.4167 0ZM13.4167 2.68333V8.05C11.9933 8.05 10.6283 8.61542 9.62186 9.62186C8.61542 10.6283 8.05 11.9933 8.05 13.4167C8.05 14.84 8.61542 16.205 9.62186 17.2115C10.6283 18.2179 11.9933 18.7833 13.4167 18.7833V24.15C16.2633 24.15 18.9934 23.0192 21.0063 21.0063C23.0192 18.9934 24.15 16.2633 24.15 13.4167C24.15 10.57 23.0192 7.83995 21.0063 5.82705C18.9934 3.81416 16.2633 2.68333 13.4167 2.68333Z" fill="#C6C6C6"/>
</svg>
