<svg width="26" height="26" viewBox="0 0 26 26" fill="none" xmlns="http://www.w3.org/2000/svg">
<path d="M23.5 1.5H2.5C1.94772 1.5 1.5 1.94772 1.5 2.5V23.5C1.5 24.0523 1.94772 24.5 2.5 24.5H23.5C24.0523 24.5 24.5 24.0523 24.5 23.5V2.5C24.5 1.94772 24.0523 1.5 23.5 1.5Z" stroke="#CF6DFF" stroke-width="1.5" stroke-linecap="round" stroke-linejoin="round"/>
<path d="M12 11V19" stroke="#CF6DFF" stroke-width="1.5" stroke-linecap="round" stroke-linejoin="round"/>
<path d="M8 11V19" stroke="#CF6DFF" stroke-width="1.5" stroke-linecap="round" stroke-linejoin="round"/>
<path d="M12 14.5C12 13.5717 12.3687 12.6815 13.0251 12.0251C13.6815 11.3687 14.5717 11 15.5 11C16.4283 11 17.3185 11.3687 17.9749 12.0251C18.6313 12.6815 19 13.5717 19 14.5V19" stroke="#CF6DFF" stroke-width="1.5" stroke-linecap="round" stroke-linejoin="round"/>
<path d="M8 8.5C8.8284 8.5 9.5 7.8284 9.5 7C9.5 6.17157 8.8284 5.5 8 5.5C7.1716 5.5 6.5 6.17157 6.5 7C6.5 7.8284 7.1716 8.5 8 8.5Z" fill="#CF6DFF"/>
</svg>
