<svg width="251" height="45" viewBox="0 0 251 45" fill="none" xmlns="http://www.w3.org/2000/svg">
<path d="M35.2839 3.28308L35.2839 17.0541L28.9566 19.5011L28.9515 19.5011L20.3122 22.8388L2.48637 15.9502L35.2839 3.28308Z" fill="url(#paint0_linear_19_6412)"/>
<path d="M60.5206 27.0975L25.2676 13.6588V0L43.3143 6.87784L60.5206 13.4431V27.0975Z" fill="url(#paint1_linear_19_6412)"/>
<path d="M25.2676 40.9531V27.1821L31.5949 24.7351H31.6L40.2393 21.3973L58.0651 28.286L25.2676 40.9531Z" fill="url(#paint2_linear_19_6412)"/>
<g style="mix-blend-mode:screen" opacity="0.4">
<path d="M59.5151 25.602L26.3572 1.79504L59.5151 14.5434V25.602Z" fill="white"/>
</g>
<g style="mix-blend-mode:multiply" opacity="0.3">
<path d="M58.2456 28.3968L31.6743 24.8515L40.35 21.5167L58.2456 28.3968Z" fill="black"/>
</g>
<g style="mix-blend-mode:multiply" opacity="0.3">
<path d="M60.5514 27.3497L25.3206 13.8081V0.0447083C25.4294 2.33997 25.476 4.62957 25.559 6.92483L25.6415 10.3617L25.6987 13.4376C28.564 14.4567 31.424 15.5078 34.2788 16.591L38.6829 18.2676L43.0816 19.9832C46.0091 21.1501 48.931 22.3301 51.8479 23.5486C53.2987 24.168 54.7597 24.7741 56.2055 25.4123C57.6513 26.0506 59.1107 26.6787 60.5514 27.3497Z" fill="black"/>
</g>
<g style="mix-blend-mode:multiply" opacity="0.3">
<path d="M60.5515 23.8025C60.4112 22.1014 60.3232 20.4003 60.2559 18.6953C60.2144 17.844 60.1833 16.993 60.1627 16.1424C60.142 15.433 60.1212 14.7298 60.106 14.0204L58.2563 13.3563L56.1008 12.5505L53.9559 11.7119C53.2355 11.4347 52.5258 11.1448 51.816 10.8481C51.1063 10.5513 50.391 10.2615 49.6813 9.94524C48.9716 9.62895 48.2639 9.33913 47.5622 9.01025C46.1478 8.3802 44.7441 7.70794 43.3555 6.97897L60.5515 13.5907V23.8025Z" fill="black"/>
</g>
<path d="M0.0309425 17.1388L35.2839 30.5774L35.2839 44.2362L17.2372 37.3584L0.0309416 30.7931L0.0309425 17.1388Z" fill="url(#paint3_linear_19_6412)"/>
<g style="mix-blend-mode:screen" opacity="0.4">
<path d="M1.03621 18.733L34.1941 42.54L1.03621 29.7916L1.03621 18.733Z" fill="white"/>
</g>
<g style="mix-blend-mode:multiply" opacity="0.3">
<path d="M2.30563 15.9382L28.877 19.4835L20.2012 22.8184L2.30563 15.9382Z" fill="black"/>
</g>
<g style="mix-blend-mode:multiply" opacity="0.3">
<path d="M-0.000190444 20.5326C0.140034 22.2337 0.228068 23.9348 0.295396 25.6397C0.336906 26.4911 0.367937 27.3421 0.38854 28.1927C0.409296 28.9021 0.430051 29.6053 0.445237 30.3147L2.295 30.9788L4.45051 31.7846L6.5954 32.6232C7.31576 32.9004 8.02549 33.1902 8.73522 33.487C9.44495 33.7837 10.1603 34.0736 10.87 34.3898C11.5797 34.7061 12.2874 34.996 12.989 35.3248C14.4034 35.9549 15.8072 36.6271 17.1958 37.3561L-0.000191161 30.7444L-0.000190444 20.5326Z" fill="black"/>
</g>
<path d="M72.8154 5.72958C74.9274 5.72958 76.5608 6.17507 77.7158 7.06606C78.8708 7.94055 79.4483 9.25228 79.4483 11.0013C79.4483 12.8657 78.8461 14.2517 77.6416 15.1592C76.4371 16.0667 74.8366 16.5204 72.8401 16.5204H70.6869V22.7821H68.3357V5.72958H72.8154ZM72.7411 14.6642C74.1106 14.6642 75.1501 14.4002 75.8596 13.8722C76.5856 13.3442 76.9486 12.3955 76.9486 11.026C76.9486 9.80503 76.5856 8.92229 75.8596 8.3778C75.1501 7.8333 74.1271 7.56106 72.7906 7.56106H70.6869V14.6642H72.7411Z" fill="#C6C6C6"/>
<path d="M90.0255 19.7379C90.0255 20.2659 90.1162 20.6619 90.2977 20.9259C90.4792 21.1734 90.7515 21.3631 91.1145 21.4951L90.5947 23.0791C89.9183 22.9966 89.3738 22.8069 88.9613 22.5099C88.5488 22.2129 88.2435 21.7509 88.0455 21.1239C87.171 22.4274 85.8758 23.0791 84.1598 23.0791C82.8728 23.0791 81.8581 22.7161 81.1156 21.9901C80.3731 21.2641 80.0019 20.3154 80.0019 19.1439C80.0019 17.7579 80.4969 16.6937 81.4869 15.9512C82.4933 15.2087 83.9123 14.8375 85.7438 14.8375H87.7485V13.8722C87.7485 12.9482 87.5258 12.2882 87.0803 11.8922C86.6348 11.4963 85.9501 11.2983 85.0261 11.2983C84.0691 11.2983 82.8976 11.5293 81.5116 11.9912L80.9424 10.333C82.5593 9.73903 84.0608 9.44203 85.4468 9.44203C86.9813 9.44203 88.128 9.82153 88.887 10.5805C89.646 11.323 90.0255 12.3872 90.0255 13.7732V19.7379ZM84.6796 21.3714C85.9831 21.3714 87.006 20.6949 87.7485 19.3419V16.3472H86.0408C83.6318 16.3472 82.4273 17.2382 82.4273 19.0202C82.4273 19.7956 82.6171 20.3814 82.9966 20.7774C83.3761 21.1734 83.9371 21.3714 84.6796 21.3714Z" fill="#C6C6C6"/>
<path d="M97.0589 23.0791C96.2174 23.0791 95.5491 22.8316 95.0541 22.3366C94.5756 21.8251 94.3364 21.1156 94.3364 20.2081V4.4921L96.6134 4.21985V20.1586C96.6134 20.5216 96.6711 20.7856 96.7866 20.9506C96.9186 21.1156 97.1331 21.1981 97.4301 21.1981C97.7436 21.1981 98.0241 21.1486 98.2716 21.0496L98.8656 22.6336C98.3211 22.9306 97.7188 23.0791 97.0589 23.0791Z" fill="#C6C6C6"/>
<path d="M106.491 9.44203C108.322 9.44203 109.741 10.0525 110.748 11.2735C111.771 12.4945 112.282 14.1527 112.282 16.2482C112.282 17.6012 112.051 18.7974 111.589 19.8369C111.127 20.8599 110.459 21.6601 109.584 22.2376C108.71 22.7986 107.67 23.0791 106.466 23.0791C104.634 23.0791 103.207 22.4686 102.184 21.2476C101.161 20.0266 100.65 18.3684 100.65 16.2729C100.65 14.92 100.881 13.732 101.343 12.709C101.805 11.6695 102.473 10.8693 103.347 10.3083C104.222 9.73078 105.27 9.44203 106.491 9.44203ZM106.491 11.2735C104.23 11.2735 103.1 12.94 103.1 16.2729C103.1 19.5894 104.222 21.2476 106.466 21.2476C108.71 21.2476 109.832 19.5812 109.832 16.2482C109.832 12.9317 108.718 11.2735 106.491 11.2735Z" fill="#C6C6C6"/>
<path d="M129.136 9.44203C130.209 9.44203 131.067 9.80503 131.71 10.531C132.354 11.2405 132.675 12.2057 132.675 13.4267V22.7821H130.398V13.7485C130.398 12.0655 129.788 11.224 128.567 11.224C127.923 11.224 127.379 11.4138 126.933 11.7933C126.488 12.1562 126.009 12.7337 125.498 13.5257V22.7821H123.221V13.7485C123.221 12.0655 122.611 11.224 121.39 11.224C120.73 11.224 120.177 11.4138 119.731 11.7933C119.286 12.1727 118.816 12.7502 118.321 13.5257V22.7821H116.044V9.73903H117.999L118.197 11.6448C119.17 10.1763 120.424 9.44203 121.959 9.44203C122.767 9.44203 123.452 9.64828 124.013 10.0608C124.59 10.4733 125.003 11.0508 125.25 11.7933C125.762 11.0343 126.323 10.4568 126.933 10.0608C127.56 9.64828 128.295 9.44203 129.136 9.44203Z" fill="#C6C6C6"/>
<path d="M146.051 19.7379C146.051 20.2659 146.141 20.6619 146.323 20.9259C146.504 21.1734 146.777 21.3631 147.14 21.4951L146.62 23.0791C145.943 22.9966 145.399 22.8069 144.986 22.5099C144.574 22.2129 144.269 21.7509 144.071 21.1239C143.196 22.4274 141.901 23.0791 140.185 23.0791C138.898 23.0791 137.883 22.7161 137.141 21.9901C136.398 21.2641 136.027 20.3154 136.027 19.1439C136.027 17.7579 136.522 16.6937 137.512 15.9512C138.518 15.2087 139.937 14.8375 141.769 14.8375H143.774V13.8722C143.774 12.9482 143.551 12.2882 143.105 11.8922C142.66 11.4963 141.975 11.2983 141.051 11.2983C140.094 11.2983 138.923 11.5293 137.537 11.9912L136.968 10.333C138.584 9.73903 140.086 9.44203 141.472 9.44203C143.006 9.44203 144.153 9.82153 144.912 10.5805C145.671 11.323 146.051 12.3872 146.051 13.7732V19.7379ZM140.705 21.3714C142.008 21.3714 143.031 20.6949 143.774 19.3419V16.3472H142.066C139.657 16.3472 138.452 17.2382 138.452 19.0202C138.452 19.7956 138.642 20.3814 139.022 20.7774C139.401 21.1734 139.962 21.3714 140.705 21.3714Z" fill="#C6C6C6"/>
<path d="M172.646 22.7821H170.37L169.776 15.085C169.528 12.0655 169.388 9.74728 169.355 8.1303L165.667 20.8516H163.464L159.579 8.10555C159.579 10.168 159.471 12.5522 159.257 15.2582L158.688 22.7821H156.46L157.871 5.72958H161.039L164.628 18.1292L168.043 5.72958H171.236L172.646 22.7821Z" fill="#C6C6C6"/>
<path d="M186.39 15.8769C186.39 16.2564 186.374 16.6442 186.341 17.0402H178.025C178.124 18.4757 178.487 19.5317 179.114 20.2081C179.741 20.8846 180.55 21.2229 181.54 21.2229C182.167 21.2229 182.744 21.1321 183.272 20.9506C183.8 20.7691 184.353 20.4804 184.93 20.0844L185.92 21.4456C184.534 22.5346 183.016 23.0791 181.366 23.0791C179.551 23.0791 178.132 22.4851 177.109 21.2971C176.103 20.1091 175.6 18.4757 175.6 16.3967C175.6 15.0437 175.814 13.8475 176.243 12.808C176.689 11.752 177.316 10.927 178.124 10.333C178.949 9.73903 179.914 9.44203 181.02 9.44203C182.752 9.44203 184.081 10.0113 185.005 11.1498C185.928 12.2882 186.39 13.864 186.39 15.8769ZM184.138 15.2087C184.138 13.9217 183.883 12.94 183.371 12.2635C182.86 11.587 182.092 11.2488 181.069 11.2488C179.205 11.2488 178.19 12.6182 178.025 15.3572H184.138V15.2087Z" fill="#C6C6C6"/>
<path d="M196.165 9.44203C197.353 9.44203 198.277 9.79678 198.937 10.5063C199.613 11.2158 199.951 12.1892 199.951 13.4267V22.7821H197.674V13.7485C197.674 12.8245 197.501 12.1727 197.155 11.7933C196.808 11.4138 196.297 11.224 195.62 11.224C194.927 11.224 194.317 11.422 193.789 11.818C193.261 12.214 192.766 12.7832 192.304 13.5257V22.7821H190.027V9.73903H191.982L192.18 11.6695C192.642 10.9765 193.211 10.432 193.888 10.036C194.581 9.64003 195.34 9.44203 196.165 9.44203Z" fill="#C6C6C6"/>
<path d="M214.379 15.8769C214.379 16.2564 214.362 16.6442 214.329 17.0402H206.014C206.113 18.4757 206.475 19.5317 207.102 20.2081C207.729 20.8846 208.538 21.2229 209.528 21.2229C210.155 21.2229 210.732 21.1321 211.26 20.9506C211.788 20.7691 212.341 20.4804 212.919 20.0844L213.909 21.4456C212.523 22.5346 211.005 23.0791 209.355 23.0791C207.54 23.0791 206.121 22.4851 205.098 21.2971C204.091 20.1091 203.588 18.4757 203.588 16.3967C203.588 15.0437 203.803 13.8475 204.232 12.808C204.677 11.752 205.304 10.927 206.112 10.333C206.937 9.73903 207.903 9.44203 209.008 9.44203C210.741 9.44203 212.069 10.0113 212.993 11.1498C213.917 12.2882 214.379 13.864 214.379 15.8769ZM212.127 15.2087C212.127 13.9217 211.871 12.94 211.359 12.2635C210.848 11.587 210.081 11.2488 209.058 11.2488C207.193 11.2488 206.178 12.6182 206.014 15.3572H212.127V15.2087Z" fill="#C6C6C6"/>
<path d="M225.494 9.73903V11.4715L218.687 20.8764H225.568L225.296 22.7821H216.113V21.0744L222.895 11.6695H216.683V9.73903H225.494Z" fill="#C6C6C6"/>
<path d="M238.331 15.8769C238.331 16.2564 238.314 16.6442 238.281 17.0402H229.966C230.065 18.4757 230.428 19.5317 231.055 20.2081C231.682 20.8846 232.49 21.2229 233.48 21.2229C234.107 21.2229 234.685 21.1321 235.213 20.9506C235.74 20.7691 236.293 20.4804 236.871 20.0844L237.861 21.4456C236.475 22.5346 234.957 23.0791 233.307 23.0791C231.492 23.0791 230.073 22.4851 229.05 21.2971C228.043 20.1091 227.54 18.4757 227.54 16.3967C227.54 15.0437 227.755 13.8475 228.184 12.808C228.629 11.752 229.256 10.927 230.065 10.333C230.89 9.73903 231.855 9.44203 232.96 9.44203C234.693 9.44203 236.021 10.0113 236.945 11.1498C237.869 12.2882 238.331 13.864 238.331 15.8769ZM236.079 15.2087C236.079 13.9217 235.823 12.94 235.311 12.2635C234.8 11.587 234.033 11.2488 233.01 11.2488C231.145 11.2488 230.131 12.6182 229.966 15.3572H236.079V15.2087Z" fill="#C6C6C6"/>
<path d="M245.506 9.44203C246.397 9.44203 247.198 9.56578 247.907 9.81328C248.617 10.0608 249.293 10.432 249.937 10.927L248.971 12.3625C248.377 11.983 247.808 11.7025 247.264 11.521C246.736 11.3395 246.175 11.2488 245.581 11.2488C244.838 11.2488 244.252 11.4055 243.823 11.719C243.394 12.016 243.18 12.4285 243.18 12.9565C243.18 13.4845 243.378 13.897 243.774 14.194C244.186 14.491 244.921 14.7797 245.977 15.0602C247.429 15.4232 248.509 15.9182 249.219 16.5452C249.945 17.1722 250.308 18.0302 250.308 19.1192C250.308 20.4061 249.805 21.3879 248.798 22.0644C247.808 22.7409 246.595 23.0791 245.16 23.0791C243.18 23.0791 241.538 22.5099 240.235 21.3714L241.447 19.9854C242.553 20.8269 243.774 21.2476 245.11 21.2476C245.968 21.2476 246.645 21.0744 247.14 20.7279C247.651 20.3649 247.907 19.8781 247.907 19.2677C247.907 18.8222 247.816 18.4674 247.635 18.2034C247.453 17.9229 247.14 17.6837 246.694 17.4857C246.249 17.2712 245.597 17.0484 244.739 16.8174C243.353 16.4544 242.347 15.9677 241.72 15.3572C241.109 14.7467 240.804 13.9712 240.804 13.0307C240.804 12.3542 241.002 11.7438 241.398 11.1993C241.81 10.6383 242.371 10.2093 243.081 9.91228C243.807 9.59878 244.615 9.44203 245.506 9.44203Z" fill="#C6C6C6"/>
<path d="M69.0207 31.2115V30.1346H73.2343V31.2115H69.0207ZM69.0207 34.9809V33.904H73.0997V34.9809H69.0207ZM68.3879 30.1346H69.5322V39.5581H68.3879V30.1346Z" fill="#C6C6C6"/>
<path d="M75.8658 33.3655V39.5581H74.7888V33.3655H75.8658ZM77.737 34.5502C77.5934 34.4425 77.4633 34.3662 77.3466 34.3213C77.2299 34.2674 77.0818 34.2405 76.9023 34.2405C76.6331 34.2405 76.4222 34.3078 76.2696 34.4425C76.117 34.5771 76.0093 34.7611 75.9465 34.9944C75.8927 35.2277 75.8658 35.4925 75.8658 35.7887H75.3811C75.3811 35.2951 75.4664 34.8598 75.6369 34.4828C75.8164 34.0969 76.0452 33.7918 76.3235 33.5674C76.6017 33.343 76.8844 33.2309 77.1716 33.2309C77.396 33.2309 77.6024 33.2623 77.7908 33.3251C77.9883 33.3789 78.1678 33.4911 78.3293 33.6616L77.737 34.5502Z" fill="#C6C6C6"/>
<path d="M78.6676 36.4618C78.6676 35.8335 78.8067 35.2771 79.0849 34.7925C79.3721 34.3078 79.758 33.9264 80.2426 33.6482C80.7273 33.37 81.2703 33.2309 81.8716 33.2309C82.4818 33.2309 83.0248 33.37 83.5005 33.6482C83.9851 33.9264 84.3665 34.3078 84.6448 34.7925C84.932 35.2771 85.0756 35.8335 85.0756 36.4618C85.0756 37.081 84.932 37.6375 84.6448 38.1311C84.3665 38.6157 83.9851 38.9972 83.5005 39.2754C83.0248 39.5536 82.4818 39.6927 81.8716 39.6927C81.2703 39.6927 80.7273 39.5536 80.2426 39.2754C79.758 38.9972 79.3721 38.6157 79.0849 38.1311C78.8067 37.6375 78.6676 37.081 78.6676 36.4618ZM79.758 36.4618C79.758 36.8926 79.8477 37.274 80.0272 37.6061C80.2157 37.9381 80.467 38.2029 80.7811 38.4003C81.1042 38.5888 81.4677 38.683 81.8716 38.683C82.2754 38.683 82.6344 38.5888 82.9485 38.4003C83.2716 38.2029 83.5229 37.9381 83.7024 37.6061C83.8909 37.274 83.9851 36.8926 83.9851 36.4618C83.9851 36.031 83.8909 35.6496 83.7024 35.3175C83.5229 34.9765 83.2716 34.7117 82.9485 34.5232C82.6344 34.3348 82.2754 34.2405 81.8716 34.2405C81.4677 34.2405 81.1042 34.3348 80.7811 34.5232C80.467 34.7117 80.2157 34.9765 80.0272 35.3175C79.8477 35.6496 79.758 36.031 79.758 36.4618Z" fill="#C6C6C6"/>
<path d="M90.5264 35.7887C90.5264 35.2771 90.4142 34.8912 90.1898 34.6309C89.9654 34.3707 89.6379 34.2405 89.2071 34.2405C88.893 34.2405 88.6147 34.3078 88.3724 34.4425C88.1391 34.5681 87.9551 34.7476 87.8205 34.9809C87.6948 35.2143 87.632 35.4835 87.632 35.7887V39.5581H86.555V33.3655H87.632V34.3348C87.8384 33.9578 88.0942 33.6796 88.3993 33.5001C88.7135 33.3206 89.0725 33.2309 89.4763 33.2309C90.1315 33.2309 90.6475 33.4507 91.0245 33.8905C91.4104 34.3213 91.6033 34.9091 91.6033 35.654V39.5581H90.5264V35.7887Z" fill="#C6C6C6"/>
<path d="M92.6856 33.3655H95.7819V34.3751H92.6856V33.3655ZM93.6952 31.2115H94.7722V39.5581H93.6952V31.2115Z" fill="#C6C6C6"/>
<path d="M101.598 39.5581V38.4811H106.35V39.5581H101.598ZM101.598 31.2115V30.1346H106.35V31.2115H101.598ZM101.598 34.9809V33.904H106.081V34.9809H101.598ZM100.965 30.1346H102.11V39.5581H100.965V30.1346Z" fill="#C6C6C6"/>
<path d="M112.271 35.7887C112.271 35.2771 112.159 34.8912 111.934 34.6309C111.71 34.3707 111.382 34.2405 110.952 34.2405C110.638 34.2405 110.359 34.3078 110.117 34.4425C109.884 34.5681 109.7 34.7476 109.565 34.9809C109.439 35.2143 109.377 35.4835 109.377 35.7887V39.5581H108.3V33.3655H109.377V34.3348C109.583 33.9578 109.839 33.6796 110.144 33.5001C110.458 33.3206 110.817 33.2309 111.221 33.2309C111.876 33.2309 112.392 33.4507 112.769 33.8905C113.155 34.3213 113.348 34.9091 113.348 35.654V39.5581H112.271V35.7887Z" fill="#C6C6C6"/>
<path d="M120.017 29.0576H121.094V39.5581H120.017V29.0576ZM114.834 36.4618C114.834 35.7887 114.973 35.2143 115.251 34.7386C115.53 34.254 115.902 33.8815 116.369 33.6213C116.835 33.361 117.347 33.2309 117.903 33.2309C118.424 33.2309 118.877 33.361 119.263 33.6213C119.649 33.8815 119.95 34.254 120.165 34.7386C120.389 35.2143 120.502 35.7887 120.502 36.4618C120.502 37.1259 120.389 37.7003 120.165 38.1849C119.95 38.6696 119.649 39.042 119.263 39.3023C118.877 39.5626 118.424 39.6927 117.903 39.6927C117.347 39.6927 116.835 39.5626 116.369 39.3023C115.902 39.042 115.53 38.6696 115.251 38.1849C114.973 37.7003 114.834 37.1259 114.834 36.4618ZM115.924 36.4618C115.924 36.9374 116.019 37.3413 116.207 37.6734C116.405 38.0054 116.665 38.2567 116.988 38.4273C117.311 38.5978 117.661 38.683 118.038 38.683C118.352 38.683 118.662 38.5978 118.967 38.4273C119.272 38.2567 119.523 38.0054 119.721 37.6734C119.918 37.3413 120.017 36.9374 120.017 36.4618C120.017 35.9861 119.918 35.5823 119.721 35.2502C119.523 34.9181 119.272 34.6668 118.967 34.4963C118.662 34.3258 118.352 34.2405 118.038 34.2405C117.661 34.2405 117.311 34.3258 116.988 34.4963C116.665 34.6668 116.405 34.9181 116.207 35.2502C116.019 35.5823 115.924 35.9861 115.924 36.4618Z" fill="#C6C6C6"/>
<path d="M127.153 30.1346H128.298V39.5581H127.153V30.1346ZM129.981 39.5581H127.786V38.4138H129.981C130.51 38.4138 130.995 38.333 131.434 38.1715C131.874 38.001 132.251 37.7631 132.565 37.458C132.879 37.1439 133.122 36.7669 133.292 36.3272C133.463 35.8874 133.548 35.3938 133.548 34.8463C133.548 34.2989 133.463 33.8052 133.292 33.3655C133.122 32.9257 132.879 32.5533 132.565 32.2481C132.251 31.934 131.874 31.6962 131.434 31.5346C130.995 31.3641 130.51 31.2788 129.981 31.2788H127.786V30.1346H129.981C130.896 30.1346 131.708 30.332 132.417 30.7269C133.126 31.1218 133.683 31.6737 134.086 32.3827C134.49 33.0828 134.692 33.904 134.692 34.8463C134.692 35.7887 134.49 36.6144 134.086 37.3234C133.683 38.0234 133.126 38.5709 132.417 38.9657C131.708 39.3606 130.896 39.5581 129.981 39.5581Z" fill="#C6C6C6"/>
<path d="M138.632 39.6927C138.058 39.6927 137.547 39.5581 137.098 39.2888C136.658 39.0106 136.312 38.6292 136.061 38.1445C135.819 37.6599 135.698 37.099 135.698 36.4618C135.698 35.8156 135.823 35.2502 136.075 34.7655C136.335 34.2809 136.694 33.904 137.152 33.6347C137.618 33.3655 138.157 33.2309 138.767 33.2309C139.377 33.2309 139.898 33.361 140.329 33.6213C140.768 33.8726 141.105 34.236 141.338 34.7117C141.572 35.1874 141.688 35.7528 141.688 36.4079C141.688 36.4708 141.684 36.5381 141.675 36.6099C141.675 36.6727 141.675 36.7131 141.675 36.731H136.384V35.8156H140.827L140.396 36.4349C140.423 36.39 140.45 36.3227 140.477 36.2329C140.504 36.1342 140.517 36.0534 140.517 35.9906C140.517 35.6226 140.441 35.304 140.288 35.0348C140.145 34.7655 139.943 34.5546 139.683 34.4021C139.422 34.2495 139.117 34.1732 138.767 34.1732C138.354 34.1732 138 34.263 137.704 34.4425C137.416 34.613 137.192 34.8643 137.03 35.1963C136.878 35.5194 136.797 35.9188 136.788 36.3945C136.788 36.8791 136.864 37.2919 137.017 37.633C137.17 37.974 137.394 38.2343 137.69 38.4138C137.986 38.5933 138.345 38.683 138.767 38.683C139.189 38.683 139.561 38.5933 139.884 38.4138C140.208 38.2253 140.481 37.9426 140.706 37.5657L141.581 38.1176C141.258 38.6382 140.849 39.0331 140.356 39.3023C139.871 39.5626 139.297 39.6927 138.632 39.6927Z" fill="#C6C6C6"/>
<path d="M141.958 33.3655H143.169L144.919 37.7407L146.669 33.3655H147.881L144.919 40.0293L141.958 33.3655Z" fill="#C6C6C6"/>
<path d="M151.095 39.6927C150.521 39.6927 150.01 39.5581 149.561 39.2888C149.121 39.0106 148.776 38.6292 148.524 38.1445C148.282 37.6599 148.161 37.099 148.161 36.4618C148.161 35.8156 148.286 35.2502 148.538 34.7655C148.798 34.2809 149.157 33.904 149.615 33.6347C150.081 33.3655 150.62 33.2309 151.23 33.2309C151.84 33.2309 152.361 33.361 152.792 33.6213C153.231 33.8726 153.568 34.236 153.801 34.7117C154.035 35.1874 154.151 35.7528 154.151 36.4079C154.151 36.4708 154.147 36.5381 154.138 36.6099C154.138 36.6727 154.138 36.7131 154.138 36.731H148.847V35.8156H153.29L152.859 36.4349C152.886 36.39 152.913 36.3227 152.94 36.2329C152.967 36.1342 152.98 36.0534 152.98 35.9906C152.98 35.6226 152.904 35.304 152.751 35.0348C152.608 34.7655 152.406 34.5546 152.146 34.4021C151.885 34.2495 151.58 34.1732 151.23 34.1732C150.817 34.1732 150.463 34.263 150.167 34.4425C149.879 34.613 149.655 34.8643 149.493 35.1963C149.341 35.5194 149.26 35.9188 149.251 36.3945C149.251 36.8791 149.327 37.2919 149.48 37.633C149.633 37.974 149.857 38.2343 150.153 38.4138C150.449 38.5933 150.808 38.683 151.23 38.683C151.652 38.683 152.024 38.5933 152.347 38.4138C152.671 38.2253 152.944 37.9426 153.169 37.5657L154.044 38.1176C153.721 38.6382 153.312 39.0331 152.819 39.3023C152.334 39.5626 151.76 39.6927 151.095 39.6927Z" fill="#C6C6C6"/>
<path d="M155.628 29.0576H156.704V39.5581H155.628V29.0576Z" fill="#C6C6C6"/>
<path d="M158.192 36.4618C158.192 35.8335 158.331 35.2771 158.609 34.7925C158.896 34.3078 159.282 33.9264 159.767 33.6482C160.251 33.37 160.794 33.2309 161.396 33.2309C162.006 33.2309 162.549 33.37 163.025 33.6482C163.509 33.9264 163.891 34.3078 164.169 34.7925C164.456 35.2771 164.6 35.8335 164.6 36.4618C164.6 37.081 164.456 37.6375 164.169 38.1311C163.891 38.6157 163.509 38.9972 163.025 39.2754C162.549 39.5536 162.006 39.6927 161.396 39.6927C160.794 39.6927 160.251 39.5536 159.767 39.2754C159.282 38.9972 158.896 38.6157 158.609 38.1311C158.331 37.6375 158.192 37.081 158.192 36.4618ZM159.282 36.4618C159.282 36.8926 159.372 37.274 159.551 37.6061C159.74 37.9381 159.991 38.2029 160.305 38.4003C160.628 38.5888 160.992 38.683 161.396 38.683C161.799 38.683 162.158 38.5888 162.473 38.4003C162.796 38.2029 163.047 37.9381 163.226 37.6061C163.415 37.274 163.509 36.8926 163.509 36.4618C163.509 36.031 163.415 35.6496 163.226 35.3175C163.047 34.9765 162.796 34.7117 162.473 34.5232C162.158 34.3348 161.799 34.2405 161.396 34.2405C160.992 34.2405 160.628 34.3348 160.305 34.5232C159.991 34.7117 159.74 34.9765 159.551 35.3175C159.372 35.6496 159.282 36.031 159.282 36.4618Z" fill="#C6C6C6"/>
<path d="M167.089 42.5198H166.012V33.3655H167.089V42.5198ZM172.272 36.4618C172.272 37.1259 172.133 37.7003 171.854 38.1849C171.576 38.6696 171.204 39.042 170.737 39.3023C170.279 39.5626 169.768 39.6927 169.202 39.6927C168.691 39.6927 168.238 39.5626 167.843 39.3023C167.457 39.042 167.152 38.6696 166.927 38.1849C166.712 37.7003 166.604 37.1259 166.604 36.4618C166.604 35.7887 166.712 35.2143 166.927 34.7386C167.152 34.254 167.457 33.8815 167.843 33.6213C168.238 33.361 168.691 33.2309 169.202 33.2309C169.768 33.2309 170.279 33.361 170.737 33.6213C171.204 33.8815 171.576 34.254 171.854 34.7386C172.133 35.2143 172.272 35.7887 172.272 36.4618ZM171.181 36.4618C171.181 35.9861 171.083 35.5823 170.885 35.2502C170.697 34.9181 170.441 34.6668 170.118 34.4963C169.804 34.3258 169.454 34.2405 169.068 34.2405C168.754 34.2405 168.444 34.3258 168.139 34.4963C167.834 34.6668 167.582 34.9181 167.385 35.2502C167.187 35.5823 167.089 35.9861 167.089 36.4618C167.089 36.9374 167.187 37.3413 167.385 37.6734C167.582 38.0054 167.834 38.2567 168.139 38.4273C168.444 38.5978 168.754 38.683 169.068 38.683C169.454 38.683 169.804 38.5978 170.118 38.4273C170.441 38.2567 170.697 38.0054 170.885 37.6734C171.083 37.3413 171.181 36.9374 171.181 36.4618Z" fill="#C6C6C6"/>
<path d="M176.153 39.6927C175.579 39.6927 175.067 39.5581 174.618 39.2888C174.179 39.0106 173.833 38.6292 173.582 38.1445C173.339 37.6599 173.218 37.099 173.218 36.4618C173.218 35.8156 173.344 35.2502 173.595 34.7655C173.855 34.2809 174.214 33.904 174.672 33.6347C175.139 33.3655 175.677 33.2309 176.288 33.2309C176.898 33.2309 177.418 33.361 177.849 33.6213C178.289 33.8726 178.626 34.236 178.859 34.7117C179.092 35.1874 179.209 35.7528 179.209 36.4079C179.209 36.4708 179.204 36.5381 179.195 36.6099C179.195 36.6727 179.195 36.7131 179.195 36.731H173.905V35.8156H178.347L177.917 36.4349C177.943 36.39 177.97 36.3227 177.997 36.2329C178.024 36.1342 178.038 36.0534 178.038 35.9906C178.038 35.6226 177.961 35.304 177.809 35.0348C177.665 34.7655 177.463 34.5546 177.203 34.4021C176.943 34.2495 176.638 34.1732 176.288 34.1732C175.875 34.1732 175.52 34.263 175.224 34.4425C174.937 34.613 174.713 34.8643 174.551 35.1963C174.398 35.5194 174.318 35.9188 174.309 36.3945C174.309 36.8791 174.385 37.2919 174.538 37.633C174.69 37.974 174.914 38.2343 175.211 38.4138C175.507 38.5933 175.866 38.683 176.288 38.683C176.709 38.683 177.082 38.5933 177.405 38.4138C177.728 38.2253 178.002 37.9426 178.226 37.5657L179.101 38.1176C178.778 38.6382 178.37 39.0331 177.876 39.3023C177.392 39.5626 176.817 39.6927 176.153 39.6927Z" fill="#C6C6C6"/>
<path d="M181.762 33.3655V39.5581H180.685V33.3655H181.762ZM183.633 34.5502C183.49 34.4425 183.359 34.3662 183.243 34.3213C183.126 34.2674 182.978 34.2405 182.799 34.2405C182.529 34.2405 182.318 34.3078 182.166 34.4425C182.013 34.5771 181.906 34.7611 181.843 34.9944C181.789 35.2277 181.762 35.4925 181.762 35.7887H181.277C181.277 35.2951 181.363 34.8598 181.533 34.4828C181.713 34.0969 181.941 33.7918 182.22 33.5674C182.498 33.343 182.781 33.2309 183.068 33.2309C183.292 33.2309 183.499 33.2623 183.687 33.3251C183.885 33.3789 184.064 33.4911 184.226 33.6616L183.633 34.5502Z" fill="#C6C6C6"/>
<defs>
<linearGradient id="paint0_linear_19_6412" x1="394.778" y1="472.269" x2="397.957" y2="501.448" gradientUnits="userSpaceOnUse">
<stop stop-color="#AD00FF"/>
<stop offset="0.0001" stop-color="#AD00FF"/>
<stop offset="1" stop-color="#7C00F8"/>
</linearGradient>
<linearGradient id="paint1_linear_19_6412" x1="-353.702" y1="-467.756" x2="-353.702" y2="-424.129" gradientUnits="userSpaceOnUse">
<stop stop-color="#A3A1A1"/>
<stop offset="1" stop-color="#959292"/>
</linearGradient>
<linearGradient id="paint2_linear_19_6412" x1="-334.226" y1="-428.033" x2="-337.406" y2="-457.212" gradientUnits="userSpaceOnUse">
<stop stop-color="#AD00FF"/>
<stop offset="0.0001" stop-color="#AD00FF"/>
<stop offset="1" stop-color="#7C00F8"/>
</linearGradient>
<linearGradient id="paint3_linear_19_6412" x1="414.254" y1="511.992" x2="414.254" y2="468.365" gradientUnits="userSpaceOnUse">
<stop stop-color="white"/>
<stop offset="1" stop-color="#959292"/>
</linearGradient>
</defs>
</svg>
